<svg width="164" height="32" viewBox="0 0 164 32" fill="none" xmlns="http://www.w3.org/2000/svg">
<path d="M15.0271 6.59536C16.3235 10.83 16.6966 15.2934 16.1211 19.6845C19.4032 17.9888 21.9819 16.8557 25.5844 16.3087C27.5085 15.9529 29.4706 15.8478 31.4217 15.9961C31.4217 15.9101 31.4217 15.8164 31.4217 15.7382C31.4217 14.7224 31.4217 13.7221 31.3592 12.7297C29.5415 12.4068 27.6753 12.4814 25.8891 12.9485C20.716 14.0503 18.5749 15.9883 18.5749 15.9883C19.0088 11.7386 18.7448 7.44655 17.7934 3.28206C17.4724 2.14494 17.0323 1.04483 16.4806 0C16.1993 0 15.9414 0 15.6992 0C14.5036 0 13.3548 1.24013e-05 12.167 0.0859709C13.3804 2.132 14.3408 4.31779 15.0271 6.59536Z" fill="#12337C"/>
<path d="M20.2706 1.47693C21.1199 5.05777 21.3681 8.75487 21.0051 12.4171C23.6077 11.0709 26.4589 10.273 29.3822 10.0728C29.726 10.0728 30.781 10.0728 31.2576 10.0728C31.0925 7.06163 30.7638 4.06168 30.273 1.08621C26.8227 0.519066 23.3418 0.156355 19.8486 0C20.0283 0.539194 20.1221 0.914297 20.2706 1.47693Z" fill="#12337C"/>
<path d="M22.318 19.3641C19.1381 19.9727 16.1361 21.2895 13.5346 23.2166C14.7011 17.3243 13.965 11.2137 11.4325 5.76704C10.545 3.84059 9.46637 2.00805 8.21296 0.296951C5.76705 0.500126 3.39928 0.797069 1.17999 1.17216C-0.39333 10.8296 -0.39333 20.6781 1.17999 30.3355C10.8383 31.8983 20.685 31.8983 30.3434 30.3355C30.9553 26.6441 31.3234 22.9164 31.4452 19.1766C28.7492 18.6295 26.7565 18.5045 22.318 19.3641Z" fill="#12337C"/>
<path d="M94.091 21.0637C95.5913 22.4234 98.6233 22.5015 98.9672 22.5015H102.554L102.624 20.7667C102.624 20.7667 100.186 20.7667 99.3344 20.7667C98.0085 20.7214 96.7525 20.1607 95.8336 19.2039C95.1303 18.2818 94.8724 17.3284 94.8255 15.5155C94.8255 14.6871 94.9037 3.66102 94.9037 3.66102H92.3171C92.3171 3.66102 92.2389 11.8036 92.2389 14.0307V14.4136C92.2858 16.8595 92.2389 19.3914 94.091 21.0637Z" fill="#27272E"/>
<path d="M162.178 27.112C160.678 28.4717 157.653 28.5421 157.294 28.5421H153.488L153.66 26.9245H157.317C157.653 26.9245 159.552 26.7369 160.443 25.9008C161.334 25.0647 161.451 24.1738 161.451 22.2984C161.451 21.9467 161.412 9.38114 161.412 9.38114H163.975C163.975 9.38114 163.975 17.8363 163.975 20.0556V20.4385C163.991 22.8923 163.999 25.4319 162.178 27.112Z" fill="#27272E"/>
<path d="M106.563 9.24049H104.086V22.4468H106.563V9.24049Z" fill="#27272E"/>
<path d="M105.328 5.87249C105.616 5.87403 105.898 5.78991 106.139 5.63079C106.379 5.47168 106.566 5.24475 106.677 4.97884C106.788 4.71294 106.818 4.42005 106.762 4.13738C106.706 3.8547 106.567 3.595 106.364 3.39126C106.16 3.18751 105.9 3.04893 105.618 2.9931C105.335 2.93726 105.042 2.96671 104.776 3.07768C104.51 3.18866 104.283 3.37616 104.124 3.61638C103.965 3.8566 103.881 4.13869 103.882 4.42682C103.882 4.61666 103.92 4.80466 103.992 4.98006C104.065 5.15546 104.172 5.31483 104.306 5.44907C104.44 5.58331 104.599 5.6898 104.775 5.76245C104.95 5.83511 105.138 5.87249 105.328 5.87249Z" fill="#27272E"/>
<path d="M158.896 22.525C158.114 22.525 155.95 22.4156 154.621 21.0871C152.644 19.1101 152.762 17.3987 152.73 15.6874C152.73 15.3279 152.73 13.6009 152.73 12.0068V9.53744H155.332C155.332 10.9362 155.332 12.8039 155.332 14.2808C155.332 15.7577 155.332 16.8908 155.332 17.1018C155.383 18.13 155.77 19.1131 156.434 19.8993C157.177 20.8058 159.138 20.9074 159.138 20.9074H160.506L160.381 22.4078L159.162 22.4937L158.896 22.525Z" fill="#27272E"/>
<path d="M130.42 16.3047C130.425 17.5249 130.772 18.7191 131.423 19.7513C132.074 20.7834 133.002 21.6118 134.101 22.1421C134.916 22.5435 135.81 22.7622 136.719 22.7829C137.343 22.7748 137.962 22.6584 138.547 22.439H138.625L138.258 21.2512H138.188C137.889 21.3405 137.578 21.3827 137.266 21.3763C137.115 21.3869 136.963 21.3869 136.812 21.3763C134.179 21.0793 132.858 18.438 132.858 16.2656C132.858 14.0932 134.069 11.2957 136.844 11.2879C137.647 11.3148 138.419 11.6057 139.041 12.1156C139.662 12.6256 140.099 13.3261 140.282 14.1089C140.412 15.77 140.456 17.4366 140.415 19.1023C140.455 20.2773 140.434 21.4537 140.352 22.6266V22.7047H142.751V22.6422C142.751 22.6422 142.806 17.3675 142.806 15.2967C142.755 13.7375 142.103 12.2585 140.985 11.1702C139.868 10.0818 138.372 9.46858 136.812 9.4593C132.96 9.39678 130.428 12.8351 130.42 16.3047Z" fill="#27272E"/>
<path d="M109.134 3.66102C109.134 3.66102 109.134 14.945 109.134 17.0158C109.235 18.6218 109.946 20.1283 111.121 21.2277C112.296 22.3272 113.846 22.9365 115.456 22.9313C119.433 22.9313 122.129 19.407 122.129 15.8984C122.166 14.7005 121.851 13.5181 121.221 12.4983C120.592 11.4785 119.677 10.6662 118.589 10.1626C117.623 9.74875 116.585 9.5284 115.534 9.514C114.882 9.52799 114.237 9.6413 113.619 9.85001H113.549L113.924 11.0534H114.002C114.319 10.9738 114.645 10.937 114.971 10.944H115.682C118.425 11.2332 119.738 13.4368 119.707 15.8906C119.707 18.0942 118.777 21.1575 115.557 21.095C114.602 21.0555 113.689 20.6942 112.965 20.07C112.242 19.4458 111.751 18.5953 111.572 17.6566C111.434 16.5029 111.387 15.3402 111.431 14.1792C111.47 9.66247 111.587 3.61412 111.587 3.60631" fill="#27272E"/>
<path d="M76.6101 21.2043C78.0714 22.5406 81.3691 22.6187 81.3847 22.6187H81.4473V21.0559H81.3769C81.3769 21.0559 79.1889 20.8761 78.3215 20.0556C77.4541 19.2351 77.3447 18.3599 77.3447 16.5313C77.3447 16.1953 77.2744 15.3435 77.2744 13.7885C77.2744 13.1633 77.2744 12.4366 77.2744 11.5848H80.9237V9.49056H77.3056C77.3056 7.05246 77.3681 5.6615 77.3681 5.6615V5.57553L74.8597 5.83342V5.89592C74.8597 5.89592 74.8597 12.1474 74.8597 14.3433V14.7262C74.8206 17.0784 74.8128 19.5633 76.6101 21.2043Z" fill="#27272E"/>
<path d="M67.6392 9.43585C66.9046 9.43585 64.7635 9.54526 63.4585 10.8893C61.5283 12.8664 61.6377 14.5934 61.6065 16.3047C61.6065 16.6798 61.6065 18.4146 61.6065 20.0166C61.6065 20.9699 61.6065 21.8686 61.6065 22.4078V22.4781H64.154V22.4078C64.154 21.0012 64.154 19.2117 64.154 17.7191C64.154 16.2266 64.154 15.0935 64.154 14.8825C64.1964 13.8507 64.5782 12.8618 65.2402 12.0693C65.9591 11.1628 67.8814 11.0456 67.8814 11.0456H67.9361V9.48273H67.6001L67.6392 9.43585Z" fill="#27272E"/>
<path d="M129.701 9.43585C128.967 9.43585 126.818 9.54526 125.521 10.8893C123.59 12.8664 123.7 14.5934 123.668 16.3047C123.668 16.6798 123.668 18.4146 123.668 20.0166C123.668 20.9699 123.668 21.8686 123.668 22.4078V22.4781H126.216V22.4078C126.216 21.0012 126.216 19.2117 126.216 17.7191C126.216 16.2266 126.216 15.0935 126.255 14.8825C126.295 13.8517 126.674 12.8629 127.333 12.0693C128.06 11.1628 129.983 11.0456 129.983 11.0456H130.037V9.48273H129.709L129.701 9.43585Z" fill="#27272E"/>
<path d="M150.995 9.43585C150.261 9.43585 148.112 9.54526 146.815 10.8893C144.885 12.8664 144.994 14.5934 144.963 16.3047C144.963 16.6798 144.963 18.4146 144.963 20.0166C144.963 20.9699 144.963 21.8686 144.963 22.4078V22.4781H147.51V22.4078C147.51 21.0012 147.51 19.2117 147.51 17.7191C147.51 16.2266 147.51 15.0935 147.549 14.8825C147.59 13.8517 147.969 12.8629 148.628 12.0693C149.354 11.1628 151.277 11.0456 151.277 11.0456H151.331V9.48273H151.003L150.995 9.43585Z" fill="#27272E"/>
<path d="M69.9992 22.4547H72.4216V9.43585H69.9992V22.4547Z" fill="#27272E"/>
<path d="M83.2836 22.4547H85.7217V9.43585H83.2836V22.4547Z" fill="#27272E"/>
<path d="M56.6053 22.4547H59.0277V9.43585H56.6053V22.4547Z" fill="#27272E"/>
<path d="M57.8087 5.83342C58.0903 5.83497 58.366 5.75288 58.6009 5.59755C58.8358 5.44221 59.0194 5.22062 59.1282 4.96088C59.237 4.70115 59.2663 4.41494 59.2123 4.13854C59.1583 3.86215 59.0235 3.60801 58.8249 3.40833C58.6263 3.20865 58.3729 3.07241 58.0968 3.01689C57.8207 2.96138 57.5344 2.98909 57.2741 3.0965C57.0137 3.20391 56.7911 3.38619 56.6345 3.62024C56.4779 3.85429 56.3943 4.12957 56.3943 4.4112C56.3943 4.78704 56.543 5.14761 56.8081 5.41411C57.0731 5.6806 57.4328 5.83136 57.8087 5.83342Z" fill="#27272E"/>
<path d="M71.2104 5.83342C71.4917 5.83342 71.7666 5.75 72.0005 5.59372C72.2344 5.43745 72.4167 5.21532 72.5243 4.95544C72.632 4.69556 72.6602 4.40961 72.6053 4.13372C72.5504 3.85784 72.4149 3.60443 72.216 3.40553C72.0171 3.20663 71.7637 3.07117 71.4878 3.01629C71.212 2.96141 70.926 2.98959 70.6661 3.09723C70.4062 3.20487 70.1841 3.38716 70.0278 3.62104C69.8716 3.85493 69.7882 4.1299 69.7882 4.41119C69.7882 4.78839 69.938 5.15013 70.2047 5.41685C70.4714 5.68356 70.8332 5.83342 71.2104 5.83342Z" fill="#27272E"/>
<path d="M84.4949 5.83342C84.7765 5.83497 85.0522 5.75288 85.2871 5.59755C85.522 5.44221 85.7056 5.22062 85.8144 4.96088C85.9232 4.70115 85.9525 4.41494 85.8985 4.13854C85.8445 3.86215 85.7097 3.60801 85.5111 3.40833C85.3125 3.20865 85.0591 3.07241 84.783 3.01689C84.5069 2.96138 84.2206 2.98909 83.9602 3.0965C83.6999 3.20391 83.4773 3.38619 83.3207 3.62024C83.1641 3.85429 83.0805 4.12957 83.0805 4.4112C83.0805 4.78704 83.2292 5.14761 83.4943 5.41411C83.7593 5.6806 84.119 5.83136 84.4949 5.83342Z" fill="#27272E"/>
<path d="M41.4453 16.0703C41.4711 17.7792 42.1577 19.4118 43.3612 20.6254C44.5646 21.8391 46.1913 22.5395 47.9 22.5797C48.5421 22.5729 49.1785 22.4593 49.7833 22.2437H49.8536L49.4707 21.0246H49.4082C49.1002 21.1093 48.7821 21.1514 48.4626 21.1496H48.0094C45.3056 20.8527 43.9537 18.1802 43.9537 16.0156C43.9537 13.851 45.1884 11.0065 48.025 10.9987C48.8441 11.0131 49.635 11.2996 50.2732 11.8133C50.9113 12.3269 51.3603 13.0383 51.5493 13.8354C51.6878 15.509 51.7374 17.1889 51.6978 18.8678C51.7388 20.0455 51.7179 21.2245 51.6353 22.3999V22.4703H54.1046V22.3999C54.1046 22.3999 54.1594 17.1018 54.1594 15.0153C54.0908 13.4349 53.4144 11.942 52.2714 10.8485C51.1283 9.75493 49.607 9.14523 48.025 9.14672C44.0319 9.11546 41.4453 12.5772 41.4453 16.0703Z" fill="#27272E"/>
</svg>
