<svg width="166" height="32" viewBox="0 0 166 32" fill="none" xmlns="http://www.w3.org/2000/svg">
<g clip-path="url(#clip0_27192_19807)">
<path d="M30.1573 1.1776C25.6926 0.41984 20.7979 0 15.6677 0C10.5374 0 5.6427 0.41984 1.17806 1.1776C0.420298 5.64224 0.000457764 10.5472 0.000457764 15.6672C0.000457764 20.7872 0.420298 25.6922 1.17806 30.1568C5.6427 30.9146 10.5374 31.3344 15.6677 31.3344C20.7979 31.3344 25.6926 30.9146 30.1573 30.1568C30.915 25.6922 31.3349 20.7974 31.3349 15.6672C31.3349 10.537 30.915 5.64224 30.1573 1.16736V1.1776ZM20.4907 24.8525L13.2408 29.1635C16.1797 26.4704 16.2104 22.9581 15.0123 20.5414C13.763 18.0019 11.0494 17.6742 9.45198 17.5104C9.09358 17.4899 8.06958 17.4592 8.06958 17.4592C8.06958 17.4592 8.68398 16.5171 8.89902 15.5955C9.11406 14.6739 9.0219 12.8922 8.32558 11.5098C7.57806 9.984 5.56078 7.85408 3.24654 7.41376L10.2507 5.46816C11.9915 5.888 13.4456 7.55712 14.0497 8.79616C14.7461 10.199 14.7256 12.0525 14.4696 13.0458C14.275 13.783 14.0395 14.4589 14.0395 14.4589C14.0395 14.4589 15.555 14.3258 16.6097 14.592C17.8078 14.9094 19.5384 15.5443 20.7467 17.8483C21.9755 20.183 21.7297 22.6509 20.4907 24.8525ZM26.9931 20.8077L22.979 23.2755C24.5253 20.8589 24.1566 17.7254 23.1326 15.9744C21.8014 13.7011 19.7432 13.1174 18.3301 12.9229C18.0126 12.9024 17.0603 12.8717 17.0603 12.8717C17.0603 12.8717 17.4904 12.0218 17.6849 10.9363C17.8283 10.0966 17.7054 8.61184 17.0603 7.55712C16.2718 6.25664 14.8997 5.03808 13.3432 4.74112L18.0126 3.47136C19.4462 3.90144 20.4907 4.5568 21.0949 5.7856C21.7297 7.07584 21.8117 8.17152 21.5864 9.33888C21.4533 10.0045 21.0744 10.9261 21.0744 10.9261C21.0744 10.9261 22.7025 10.8646 23.6344 11.1104C24.7096 11.3869 26.1534 11.8989 27.2696 14.0288C28.396 16.1894 28.0273 18.8314 26.9931 20.8077Z" fill="#ED6C00"/>
<path d="M39.8241 6.43021V16.2811H41.8721V6.43021H39.8241ZM40.8481 3.27629C41.5137 3.27629 42.0462 2.74381 42.0462 2.07821C42.0462 1.41261 41.5137 0.880127 40.8481 0.880127C40.1825 0.880127 39.65 1.41261 39.65 2.07821C39.65 2.74381 40.1927 3.27629 40.8481 3.27629Z" fill="black"/>
<path d="M53.719 8.0903C54.4563 7.38374 55.2038 6.30854 54.9785 4.62918C54.6918 2.54022 52.8076 1.0759 50.1452 1.05542C48.3942 1.05542 44.4313 1.05542 44.4313 1.05542V16.3028L46.3155 16.2823L46.3359 2.38662C46.3359 2.38662 49.2441 2.3047 50.4217 2.38662C51.7017 2.47878 52.9817 3.62566 53.0022 4.8135C53.0329 6.32902 52.2956 7.43494 50.5446 7.87526C49.2031 8.21318 46.8991 8.04934 46.8991 8.04934V9.36006C46.8991 9.36006 49.07 9.33958 49.2543 9.36006C49.8278 9.44198 50.2067 9.97446 50.2067 9.97446L53.9443 16.2004H56.2278L51.63 9.13478C52.3161 8.99142 53.0841 8.67398 53.719 8.08006V8.0903Z" fill="black"/>
<path d="M73.2786 5.19263C69.9301 5.19263 67.7592 8.05983 67.749 10.968C67.749 13.1696 69.1621 15.0537 70.9439 15.8422C71.8348 16.2416 72.5823 16.3849 73.2172 16.3747C73.8418 16.3747 74.364 16.2313 74.8146 16.088H74.876L74.5586 15.064L74.4972 15.0845C74.4972 15.0845 74.2002 15.1869 73.6984 15.1869C73.5858 15.1869 73.4527 15.1869 73.3093 15.1664C71.0155 14.9206 69.6332 12.8726 69.5717 10.7837C69.5308 8.95071 70.9644 6.28831 73.3708 6.28831C75.0296 6.28831 76.0229 7.78335 76.2892 8.79711C76.5247 9.69823 76.494 16.1597 76.494 16.1597H78.4908C78.4908 16.1597 78.501 11.8077 78.501 10.0669C78.501 7.79359 76.6271 5.19263 73.2786 5.19263Z" fill="black"/>
<path d="M88.8535 1.02417C88.8535 1.02417 88.8125 6.37969 88.8944 10.3938C88.8944 10.9365 89.0173 12.7387 88.6384 13.5887C88.1469 14.6946 87.1946 15.2578 85.464 15.1451C83.0576 14.9915 81.6855 12.6261 81.7264 10.7727C81.7776 8.67345 82.7709 6.84049 84.8803 6.42065C86.0682 6.18513 87.4506 6.89169 87.4506 6.89169L88.0343 6.00081C88.0343 6.00081 87.5018 5.64241 87.0922 5.47857C86.4675 5.23281 86.017 5.18161 85.3821 5.18161C84.7472 5.18161 83.5901 5.32497 82.7299 5.79601C80.8867 6.78929 79.9139 8.39697 79.9139 10.5883C79.9139 13.4965 82.0951 16.3739 85.4435 16.3739C88.6077 16.3739 90.7683 14.1928 90.7683 11.5509C90.7683 9.82033 90.8605 1.02417 90.8605 1.02417H88.8637H88.8535Z" fill="black"/>
<path d="M117.341 7.91568C118.457 7.4856 119.307 6.06224 119.287 4.65936C119.256 2.85712 117.618 1.0344 115.283 1.0344C114.761 1.0344 114.935 1.0344 109.098 1.01392L109.118 16.3125H111.136V2.54992C111.136 2.54992 112.385 2.49872 113.88 2.49872C115.867 2.49872 116.768 3.10288 117.054 4.48528C117.31 5.7448 116.481 7.37296 114.484 7.37296C114.167 7.37296 112.088 7.4344 112.088 7.4344L112.375 8.83728C112.375 8.83728 113.921 8.87824 114.689 8.89872C116.348 8.92944 117.833 9.52336 118.058 11.5611C118.283 13.5989 117.259 14.5614 115.201 14.9608C114.617 15.0734 112.201 15.0222 112.201 15.0222L112.487 16.3125C114.116 16.3944 117.003 16.4558 118.15 15.8517C119.84 14.9608 120.27 13.947 120.413 12.0219C120.546 10.2197 119.522 8.38672 117.341 7.93616V7.91568Z" fill="black"/>
<path d="M127.028 5.02759C123.792 5.02759 121.447 7.56711 121.447 10.7005C121.447 13.834 123.515 16.3735 127.028 16.3735C130.54 16.3735 132.609 13.834 132.609 10.7005C132.609 7.56711 130.458 5.02759 127.028 5.02759ZM127.028 15.1242C124.765 15.1242 123.495 13.3117 123.495 10.6903C123.495 8.06887 124.765 6.13351 127.028 6.13351C129.291 6.13351 130.561 8.06887 130.561 10.6903C130.561 13.3117 129.321 15.1242 127.028 15.1242Z" fill="black"/>
<path d="M139.266 5.02759C136.03 5.02759 133.685 7.56711 133.685 10.7005C133.685 13.834 135.753 16.3735 139.266 16.3735C142.778 16.3735 144.846 13.834 144.846 10.7005C144.846 7.56711 142.696 5.02759 139.266 5.02759ZM139.266 15.1242C137.003 15.1242 135.733 13.3117 135.733 10.6903C135.733 8.06887 137.003 6.13351 139.266 6.13351C141.529 6.13351 142.798 8.06887 142.798 10.6903C142.798 13.3117 141.559 15.1242 139.266 15.1242Z" fill="black"/>
<path d="M150.048 11.1715C149.28 10.2294 149.69 9.3283 150.274 8.7139C151.707 7.19838 154.165 5.14014 154.165 5.14014L156.254 5.22206C156.254 5.22206 153.858 7.50558 152.619 8.82654C151.769 9.7379 151.646 10.168 152.619 11.3456C153.591 12.5232 156.878 16.2915 156.878 16.2915H154.052C153.028 15.1241 151.482 12.943 150.048 11.1715Z" fill="black"/>
<path d="M148.399 1.02393H146.218V16.261H148.399V1.02393Z" fill="black"/>
<path d="M102.576 12.1548L107.665 8.15092C107.491 7.7618 107.255 7.38292 106.979 7.01428C106.426 6.28724 104.869 4.8946 102.432 5.05844C99.4216 5.27348 97.3122 7.72084 97.3736 10.7826C97.4248 13.4143 98.8482 14.6328 99.7595 15.2882C101.019 16.1996 102.279 16.3122 103.241 16.2815C104.337 16.2508 105.77 15.9743 107.143 15.0117C106.979 14.8172 106.661 14.5919 106.416 14.2335C105.381 14.8991 104.112 15.2063 102.77 14.981C101.552 14.7762 99.7083 13.5986 99.3192 11.4994C98.8379 8.90868 100.067 7.21908 101.889 6.67636C103.272 6.25652 105.023 7.21908 105.443 8.13044L101.562 11.4482L102.586 12.1548H102.576Z" fill="black"/>
<path d="M61.5217 12.1548L66.611 8.15092C66.4369 7.7618 66.2014 7.38292 65.9249 7.01428C65.3719 6.28724 63.8154 4.8946 61.3783 5.05844C58.3678 5.27348 56.2583 7.72084 56.3198 10.7826C56.371 13.4143 57.7943 14.6328 58.7057 15.2882C59.9652 16.1996 61.2247 16.3122 62.1873 16.2815C63.283 16.2508 64.7166 15.9743 66.0887 15.0117C65.9249 14.8172 65.6074 14.5919 65.3617 14.2335C64.3274 14.8991 63.0577 15.2063 61.7162 14.981C60.4977 14.7762 58.6545 13.5986 58.2654 11.4994C57.7841 8.90868 59.0129 7.21908 60.8356 6.67636C62.218 6.25652 63.969 7.21908 64.3889 8.13044L60.5079 11.4482L61.5319 12.1548H61.5217Z" fill="black"/>
<path d="M157.82 16.0876L157.646 14.613C158.506 14.7769 159.499 14.9919 160.349 15.0533C161.209 15.125 162.08 15.0943 162.622 14.6437C163.042 14.2853 163.308 13.9167 163.308 13.4252C163.308 12.8415 162.899 12.3602 162.284 12.0121C162.008 11.8482 161.598 11.6639 160.472 11.2543C159.315 10.8345 158.526 10.4351 158.055 10.0255C157.492 9.54422 157.195 8.86838 157.195 8.22326C157.195 7.64982 157.451 6.87158 157.871 6.40054C158.69 5.49942 159.468 5.06934 161.301 5.06934C162.346 5.06934 163.339 5.2127 164.599 5.6735L164.64 7.04566C163.575 6.48246 162.54 6.2367 161.65 6.2367C160.943 6.2367 160.359 6.41078 159.919 6.7487C159.55 7.04566 159.366 7.39382 159.366 7.80342C159.366 8.21302 159.55 8.58166 159.929 8.85814C160.308 9.13462 161.086 9.44182 162.233 9.8719C163.452 10.3225 164.384 10.7525 164.834 11.1826C165.408 11.7253 165.746 12.4524 165.705 13.1487C165.653 13.9167 165.428 14.6233 164.896 15.1557C164.015 16.0364 162.991 16.446 161.117 16.3538C160.421 16.3231 158.619 16.3026 157.82 16.0876Z" fill="black"/>
<path d="M66.6229 20.552V21.4429H69.5004V22.0982H66.6229V22.9277H65.9164V22.0982H62.1275V22.9686H61.421V22.0982H58.4207V21.4429H61.421V20.552H62.1275V21.4429H65.9164V20.552H66.6229ZM59.0555 23.4806H69.0088V24.136H67.6879V25.6618H69.5413V26.3171H67.6879V27.7917H69.4594V28.447H64.3906V29.768H69.0088V30.4234H64.3906V31.9696H63.6943V30.4234H59.0555V29.768H63.6943V28.447H58.6152V27.7917H60.3458V26.3171H58.4104V25.6618H60.3458V24.136H59.0453V23.4806H59.0555ZM63.7045 24.136H61.0626V25.6618H63.7045V24.136ZM63.7045 26.3171H61.0626V27.7917H63.7045V26.3171ZM64.4008 25.6618H66.9916V24.136H64.4008V25.6618ZM64.4008 27.7917H66.9916V26.3171H64.4008V27.7917Z" fill="black"/>
<path d="M82.2595 27.3192C80.5801 27.5138 78.7472 27.6162 76.7504 27.6162V27.0222C77.631 27.0222 78.5014 27.012 79.3411 27.0018V26.2747H77.3136V25.8549C77.2009 25.8651 77.0985 25.8958 76.9961 25.9266L76.7401 25.3531C77.2521 25.2917 77.6208 25.179 77.8563 25.0152C78.0201 24.9026 78.1533 24.7592 78.2761 24.5442H76.7913V24.0322H79.3513V23.4382H77.119V22.9365H79.3513V22.404H79.7302V21.7282H76.7299V21.1752H79.7302V20.571H80.4368V21.1752H84.4201V20.571H85.1267V21.1752H87.9017V21.7282H85.1267V22.5474H84.7171V23.2744H86.7446C86.7446 24.0424 86.7549 24.8002 86.7958 25.5272C86.8368 26.2542 86.9392 26.6331 87.144 26.6331C87.2873 26.6331 87.4819 26.2645 87.6969 25.517L88.0758 26.2235C87.8301 27.0427 87.5228 27.4523 87.144 27.4523C86.55 27.4523 86.2326 26.971 86.1609 26.0085C86.1097 25.261 86.0892 24.5646 86.079 23.8888H84.7069V24.0526C84.7069 24.6056 84.6249 25.1278 84.4304 25.6091C84.8604 25.8856 85.2803 26.1621 85.6796 26.4795L85.2598 26.9608C84.9219 26.6741 84.5635 26.4078 84.1846 26.1416C83.8876 26.6536 83.4678 27.1246 82.9353 27.524L82.5052 26.971C82.9865 26.6126 83.3552 26.2133 83.6214 25.7832C83.3245 25.5989 83.0172 25.4146 82.6896 25.2405L83.048 24.8104C83.3244 24.9435 83.5907 25.0971 83.8569 25.261C83.99 24.8923 84.0515 24.493 84.0515 24.0629V23.899H82.6691V23.2949H84.0515V22.4245H84.4099V21.7486H80.4265V22.5166H80.0374V22.9672H82.0956V23.469H80.0374V24.0629H82.3312V24.5749H81.1126V24.8923C81.1126 25.005 81.174 25.0562 81.2867 25.0562H82.3721V25.5272H81.2355C80.7849 25.5272 80.5699 25.3019 80.5699 24.8411V24.5646H78.8086C78.655 24.9333 78.4707 25.2098 78.2556 25.3941C78.0304 25.5579 77.7436 25.691 77.4057 25.8242H79.3411V25.22H80.0476V25.8242H82.0547V26.285H80.0476V26.9915C80.7952 26.9506 81.512 26.9096 82.2185 26.8584L82.2697 27.3397L82.2595 27.3192ZM76.7299 29.4286H87.9529V29.9816H85.0755C85.9459 30.3912 86.888 30.9134 87.912 31.5176L87.3693 31.9886C87.062 31.7736 86.7549 31.5893 86.4579 31.405C83.1811 31.405 80.191 31.4869 77.5184 31.6507L77.3955 30.9646C77.3955 30.9646 77.4569 30.9544 77.4979 30.9646C77.8153 30.9134 78.2556 30.7291 78.8086 30.4219L79.5561 29.9714H76.7504V29.4184L76.7299 29.4286ZM77.59 28.0872H87.1747V28.6299H77.59V28.0872ZM84.6249 29.9918H80.7235C80.0886 30.3298 79.4742 30.6472 78.87 30.9339C80.8259 30.8827 83.007 30.852 85.4236 30.8213C85.0345 30.6062 84.6659 30.4014 84.3075 30.2171L84.6249 29.9918Z" fill="black"/>
<path d="M95.407 22.5591H100.394V21.617H95.7551V20.9617H105.657V21.617H101.09V22.5591H105.985V24.7607H105.278V23.2145H101.09V25.6823H100.394V23.2145H96.1135V24.8119H95.407V22.5591ZM105.299 26.1943V29.9422H101.039V30.7818C101.039 31.0173 101.152 31.13 101.387 31.13H105.237C105.524 31.13 105.657 30.9866 105.657 30.6999V29.7988L106.364 29.9934V30.6794C106.364 31.4065 106.026 31.7854 105.35 31.7854H101.367C100.681 31.7854 100.353 31.4167 100.353 30.6794V29.9524H96.0419V26.2046H105.309L105.299 26.1943ZM100.343 26.8497H96.7382V27.8122H100.343V26.8497ZM100.343 28.4164H96.7382V29.2868H100.343V28.4164ZM96.8611 24.9962H99.5132V25.5082H96.8611V24.9962ZM96.902 23.9006H99.5132V24.4126H96.902V23.9006ZM101.039 27.8122H104.603V26.8497H101.039V27.8122ZM104.603 28.4164H101.039V29.2868H104.603V28.4164ZM101.889 23.9006H104.5V24.4126H101.889V23.9006ZM101.889 24.9962H104.603V25.5082H101.889V24.9962Z" fill="black"/>
<path d="M114.485 21.3801H123.732V22.0764L119.533 24.9334V26.111H124.633V26.8176H119.533V30.8828C119.533 31.5689 119.195 31.8966 118.519 31.8966H115.98L115.785 31.19H118.407C118.693 31.19 118.837 31.0569 118.837 30.7702V26.8176H113.461V26.111H118.837V24.278H119.267L122.697 22.0764H114.475V21.3801H114.485Z" fill="black"/>
<path d="M143.075 27.3519H131.657V26.7477H136.879V25.9797H132.282V25.4268H136.879V24.6485H132.568V24.0444H136.879V23.2559H131.657V22.6517H136.879V21.8633H132.568V21.2591H136.879V20.5833H137.586V21.2591H141.836V22.662H143.075V23.2661H141.836V24.669H137.586V25.4473H142.44V26.0002H137.586V26.7682H143.075V27.3724V27.3519ZM133.06 28.0584H141.6V31.9189H140.893V31.4172H133.756V31.9189H133.05V28.0584H133.06ZM133.766 29.4818H140.904V28.6524H133.766V29.4818ZM140.904 30.045H133.766V30.813H140.904V30.045ZM141.149 21.8428H137.596V22.6313H141.149V21.8428ZM141.149 23.2457H137.596V24.0341H141.149V23.2457Z" fill="black"/>
</g>
<defs>
<clipPath id="clip0_27192_19807">
<rect width="165.704" height="32" fill="white"/>
</clipPath>
</defs>
</svg>
