<svg width="119" height="30" viewBox="0 0 119 30" fill="none" xmlns="http://www.w3.org/2000/svg">
  <path d="M18.7336 12.208C18.621 12.208 18.5653 12.377 18.5653 12.377L18.6775 12.6024C18.7527 12.5679 18.8124 12.5082 18.8458 12.4334L18.7336 12.208ZM6.07485 2.30687C5.96225 2.02575 6.01837 1.74426 6.07485 1.34988C6.24392 1.68781 6.24392 2.1379 6.07485 2.36257V2.30613V2.30687ZM16.7645 23.6848C16.5962 23.6848 16.4275 23.6848 16.4832 23.7973C16.4832 23.9094 16.5958 24.0227 16.708 24.0227C16.8206 24.0227 16.8771 23.9102 16.8771 23.7973C16.8771 23.684 16.8771 23.6283 16.7645 23.6283V23.6848ZM18.2836 13.5582C18.1153 13.5582 18.0588 13.6708 18.0588 13.7836C18.0588 13.8969 18.1714 14.0087 18.2836 14.0087C18.3962 14.0087 18.5088 13.8962 18.5088 13.7836C18.5088 13.6715 18.3962 13.5582 18.2836 13.5582ZM18.1714 12.996C18.1714 13.1646 18.0588 13.2214 17.9465 13.2214C17.834 13.2214 17.6649 13.1089 17.6649 12.996C17.6649 12.8827 17.7775 12.7706 17.8897 12.7706C18.0588 12.7706 18.1714 12.827 18.1714 12.996ZM18.7336 14.4588C18.7336 14.2898 18.621 14.1773 18.4519 14.1773C18.3397 14.1773 18.2271 14.2898 18.2271 14.4027C18.2271 14.516 18.3962 14.6281 18.5088 14.6281C18.6775 14.6281 18.7336 14.5717 18.7336 14.4595M18.8466 13.0517C18.7343 13.0517 18.6217 13.1642 18.5653 13.2771C18.5653 13.3896 18.6775 13.5018 18.8466 13.5018C18.9591 13.5018 19.0714 13.3896 19.0714 13.2771C19.0714 13.1082 19.0156 13.0517 18.8466 13.0517ZM6.13133 8.94488L6.35615 8.38264H6.46874V8.94488C6.457 9.03028 6.41739 9.10944 6.35615 9.17029C6.31947 9.17762 6.28133 9.17762 6.24392 9.17029V9.05813L6.13133 8.94561V8.94488ZM23.5729 13.3336L23.7977 12.8835L23.6851 12.7145C23.6477 12.7101 23.6103 12.7101 23.5729 12.7145C23.516 12.827 23.179 13.2214 23.2355 13.2771H23.5729V13.3336ZM26.2729 24.472C26.3242 24.4266 26.3627 24.3683 26.3851 24.3031L26.442 24.022L26.1603 24.1902C25.9942 24.2375 25.8251 24.2749 25.6542 24.3027L25.5973 24.4149L25.6542 24.4713H26.2729L26.2729 24.472ZM11.0825 4.55692C11.0825 4.83841 11.0825 5.17597 10.9134 5.45745L10.8008 5.56961V5.40101C10.8719 5.09973 10.9471 4.79955 11.026 4.50121L11.0825 4.55692ZM26.4984 23.5719L25.429 23.9094C25.6545 24.1909 26.3858 23.9094 26.4984 23.5719ZM14.1206 13.7833C14.1206 13.9519 14.1771 14.0644 14.2889 14.1769L14.4012 14.008V13.2764C14.4012 13.1642 14.2889 13.1642 14.2889 13.2764C14.2325 13.4446 14.1206 13.6136 14.1206 13.839V13.7825V13.7833ZM17.6649 2.08219C17.9113 1.90589 18.1758 1.75563 18.4527 1.63211C18.2455 1.94401 17.9774 2.21231 17.6649 2.41975V2.08219ZM2.98021 8.83272L2.92446 8.27012C2.90649 8.13927 2.90649 8.00732 2.92446 7.87648L3.03669 7.76396L3.14928 7.87648V8.83272H2.98021ZM9.73171 3.31956L10.1256 3.15132L10.5752 2.92591C10.6064 2.92335 10.6365 2.92664 10.6655 2.93728C10.6944 2.9468 10.7216 2.9622 10.7443 2.98236L10.6321 3.09488L9.95653 3.48852C9.88172 3.49512 9.80653 3.49512 9.73172 3.48852C9.71741 3.46287 9.70935 3.43391 9.70935 3.40422C9.70935 3.3749 9.71741 3.34595 9.73171 3.31956ZM16.3706 23.2904L16.8771 22.9528C16.9329 22.8964 16.8771 22.8964 16.8771 22.8403C16.8771 22.7278 16.8206 22.7278 16.708 22.7846C16.4832 22.7846 16.3706 22.8968 16.1451 22.9528C16.0886 22.9528 16.0329 23.065 16.1451 23.1218L16.3706 23.2904ZM19.7469 3.99432C19.9717 4.2758 20.0282 4.55692 20.0843 4.83841V4.89485H20.0275C19.8027 4.61373 19.6336 4.38869 19.5779 4.10757L19.6343 3.9386H19.7469V3.99505V3.99432ZM14.7393 2.92592L14.7951 3.03844L14.7393 3.15059H13.8951C13.8477 3.10148 13.8096 3.0443 13.7825 2.98163L13.8951 2.92518H14.7393V2.92592ZM27.1171 8.7202L27.3984 9.00169L27.7923 9.33852V9.50748H27.6236L26.9481 9.00169V8.77628H27.0045L27.1171 8.71947V8.7202ZM7.98781 4.66944V4.78196L8.21263 5.73857V6.07577L8.10041 5.96325L7.98781 5.51317L7.87522 4.95056C7.87522 4.83841 7.87522 4.72516 7.98781 4.66944ZM12.1512 5.68213V5.79465L12.0386 5.68213L11.926 5.3442C11.926 5.06308 11.926 4.89412 12.0943 4.78196C12.1512 4.66944 12.2069 4.66944 12.2069 4.78196V5.68213H12.1504H12.1512ZM28.692 4.83841L29.3668 5.40101V5.45745C29.3939 5.49008 29.4134 5.5282 29.4233 5.56961C29.3859 5.57291 29.3484 5.57291 29.311 5.56961C29.0294 5.40101 28.7481 5.28849 28.5233 5.00737V4.83841H28.692ZM5.79355 9.62073L5.56836 9.50821L5.00613 9.62073C4.93132 9.63173 4.85577 9.63173 4.78058 9.62073L4.61224 9.56392L4.94965 9.39533C5.06225 9.39533 5.51188 9.33852 5.85003 9.39533V9.62074L5.79355 9.62073ZM6.07485 5.90681L5.90651 5.79465L5.45614 5.06308L5.34355 4.83768L5.51189 4.66871C5.53903 4.7017 5.55847 4.74055 5.56837 4.78123L5.85003 5.34384L6.07485 5.73784L6.07485 5.90681ZM12.4325 7.48284L12.3199 7.70825C12.1563 7.89993 11.9872 8.08796 11.8138 8.27085H11.7012V8.10189C11.7664 7.96517 11.8413 7.8336 11.926 7.70825L12.2076 7.37032H12.376V7.48284L12.4325 7.48284ZM19.7469 12.9392C19.7095 12.867 19.6501 12.808 19.5786 12.7706C19.5786 12.7138 19.466 12.7706 19.353 12.7706C19.2903 12.8197 19.2338 12.8769 19.1847 12.9392C19.1282 13.0517 19.1847 13.1646 19.2969 13.2771H19.6343L19.7469 12.9392ZM24.4729 5.73857C24.079 5.73857 23.6851 5.56961 23.2912 5.40101C23.2413 5.37865 23.2017 5.33833 23.179 5.28849C23.2333 5.27126 23.2927 5.27126 23.3473 5.28849L24.4721 5.56961L24.5847 5.68213C24.5565 5.72795 24.5183 5.7668 24.4721 5.79465V5.73784L24.4729 5.73857ZM13.4451 9.11384C13.5015 9.11384 13.5577 9.22636 13.4451 9.33852C13.276 9.62 13.276 9.84541 13.1638 10.1826C13.1315 10.2423 13.0941 10.2988 13.0512 10.3512L12.9389 10.408V10.2955L13.0512 9.73289L13.2202 9.33852C13.2202 9.17028 13.3328 9.11384 13.4451 9.11384ZM8.88819 2.58799H8.77559L7.81874 2.02575L7.763 1.91323H7.87522C8.10077 1.91323 8.43745 2.08219 8.663 2.13864C8.83134 2.25116 8.88819 2.36404 8.88819 2.53228V2.58799ZM5.68096 11.5893C5.79355 11.5893 5.85003 11.5893 5.79355 11.7018C5.79355 11.7583 5.79355 11.8143 5.68096 11.8143C5.53646 11.8693 5.38499 11.9071 5.23132 11.9265C5.04428 11.9481 4.85503 11.9481 4.66909 11.9265L4.44391 11.8143C4.46114 11.7832 4.48535 11.7572 4.51506 11.7381C4.54476 11.7183 4.57814 11.7059 4.61298 11.7018L5.68169 11.5893H5.68096ZM11.6447 6.02006C11.4921 5.94969 11.3421 5.87455 11.1943 5.79502V5.62643L11.4756 5.23205H11.6447L11.8695 5.79466C11.8695 5.90681 11.8695 5.96289 11.6447 5.96289V6.02006ZM24.0225 11.6454C24.0225 11.7018 23.9099 11.7579 23.966 11.8143V11.9826H24.4164L25.0919 12.0947L25.2042 12.0383V11.8701C24.9794 11.7579 24.6977 11.6446 24.4164 11.6446H24.0225V11.6454ZM4.21836 27.8473L4.05002 27.9598C3.8252 27.9598 3.76872 28.0163 3.76872 28.1288C3.76872 28.2409 3.8252 28.297 3.93706 28.297C4.21836 28.1845 4.38743 28.1845 4.72484 28.2402H4.78058L4.94965 28.0155L4.78058 27.9034H4.21835V27.8466L4.21836 27.8473ZM19.0714 13.6708C18.903 13.6708 18.7343 13.7833 18.7343 13.9519C18.7343 14.1208 18.9599 14.2891 19.1282 14.2891C19.2966 14.2891 19.4095 14.1769 19.4095 14.008C19.4095 13.7833 19.2969 13.6708 19.0721 13.6708M28.7488 1.4067C28.7488 1.4067 28.861 1.4067 28.9175 1.51885V1.68781L27.8484 2.1379C27.8484 2.1379 27.7358 2.19434 27.7923 2.1379C27.7923 1.91249 28.5236 1.4067 28.7488 1.4067ZM27.511 10.6891L27.4545 11.0835L27.2855 10.802C27.2855 10.6334 27.0607 10.3519 26.8916 10.0147V9.90259C26.8916 9.84615 26.9473 9.79007 27.0042 9.84615H27.1729L27.5103 10.6899L27.511 10.6891ZM16.2584 4.83841L15.808 5.51317L15.4141 5.90681H15.2458V5.79465L15.808 5.11953L16.0328 4.83841H16.1451L16.2577 4.89485V4.83841H16.2584ZM7.87522 15.5272L7.98781 16.0898C7.98781 16.2023 8.04429 16.3152 8.21263 16.2587C8.38171 16.2587 8.43745 16.1462 8.43745 16.0333L8.32523 15.4707C8.32523 15.3025 8.21263 15.1896 8.04356 15.2461C7.93134 15.2461 7.87486 15.2461 7.87486 15.4707V15.5272H7.87522ZM5.79355 8.77628C5.59954 8.74439 5.40993 8.68795 5.23059 8.60731C4.94892 8.43908 4.66836 8.15723 4.72411 7.87648C4.72411 7.76396 4.8367 7.70751 4.94892 7.76396L5.00577 7.8204L5.51189 8.383C5.62448 8.43981 5.73671 8.60805 5.79355 8.77664M3.54317 16.3713V17.1025C3.54317 17.2714 3.59892 17.2714 3.76799 17.2714C3.88058 17.2714 3.93633 17.1589 3.93633 16.9903L4.04892 16.4277C4.04892 16.2587 4.04892 16.1462 3.93633 16.1462C3.76799 16.1462 3.59892 16.203 3.54244 16.3716M32.0118 1.29418C31.8992 0.956982 31.6179 0.562607 31.4492 0.394375C31.337 0.225411 31.2805 0.168964 31.1121 0.394375C31.0527 0.428091 30.997 0.46548 30.9431 0.506895C30.7747 0.731571 30.6614 1.01342 30.9431 1.0695L31.6744 1.12595L31.9557 1.35062L32.0683 1.29418H32.0118ZM7.25652 24.4163C7.03757 24.5226 6.84539 24.6766 6.69429 24.8664L6.41299 25.429C6.33707 25.6097 6.28059 25.7985 6.24465 25.9916H6.3004C6.46947 25.9916 6.80688 25.6537 6.86336 25.6537C7.08818 25.3726 7.20077 25.0911 7.31299 24.5285L7.25652 24.4163ZM25.1477 2.64406C25.1477 2.36257 24.8664 1.85678 24.7538 1.68781C24.5847 1.51885 24.4164 1.46241 24.1916 1.68781C24.152 1.72337 24.1146 1.76075 24.079 1.80033C23.9099 2.02501 23.9099 2.08145 24.1916 2.19398L24.6977 2.4751L25.0919 2.86874V2.64333H25.1477V2.64406ZM10.6886 11.6454C10.6321 11.6454 10.576 11.6454 10.5202 11.5329L10.3512 10.8017C10.3512 10.6891 10.3512 10.6327 10.5202 10.6327L11.4763 10.9138C11.5889 10.9138 11.5889 11.0263 11.5328 11.0828L10.8015 11.6454L10.6886 11.6454ZM10.013 15.5272L9.84467 15.6961C9.67597 15.8087 9.28244 15.8651 9.05689 16.0333C8.94467 16.0898 9.05689 15.8651 9.05689 15.7522L8.88856 15.1328L8.71985 14.7952C8.60726 14.6827 8.83208 14.6827 8.88856 14.627L9.28245 14.5145H9.39504V14.627C9.2267 14.7392 9.2267 14.7952 9.28245 14.9642V15.47L9.39504 15.6954C9.50763 15.6954 9.67634 15.5832 9.67634 15.5268V15.2453L9.78893 15.1328L10.0137 15.5832V15.5268L10.013 15.5272ZM13.2202 6.30118L12.7699 6.13221L12.6573 5.96325V5.3442C12.6573 5.23205 12.7134 5.17597 12.8256 5.23205C12.994 5.23205 13.1073 5.23205 13.2756 5.3442C13.4443 5.40101 13.726 5.90681 13.6695 6.13221C13.5569 6.30118 13.4443 6.30118 13.2195 6.30118M4.21836 14.3455L3.88095 14.4023L3.43131 14.4588L2.98094 14.3463C2.86835 14.3463 2.75612 14.4588 2.69927 14.6277C2.69927 14.796 2.81187 14.9089 2.98094 14.9646C3.35062 15.0441 3.72801 15.0819 4.10613 15.0771C4.18095 15.0771 4.21835 15.0397 4.21835 14.9646L4.21836 14.3455ZM11.3073 16.3713C11.3073 16.5399 11.4199 17.046 11.5321 17.1585L12.3199 16.9896C12.5451 16.9331 12.6573 16.7081 12.6015 16.4834C12.6015 16.3145 12.4889 16.258 12.376 16.2023C12.3199 16.1968 12.2634 16.1968 12.2076 16.2023C11.8702 16.2023 11.6447 16.2587 11.3638 16.3713H11.3073ZM11.1389 14.9081V15.1896C11.0267 15.4143 10.8015 15.5268 10.576 15.5268C10.3504 15.5268 10.2386 15.47 10.1821 15.2453L10.0699 14.5138L9.78819 14.4573L9.73171 14.3452L10.0691 14.2326C10.2191 14.2326 10.313 14.2891 10.3504 14.4016L10.463 15.1889C10.463 15.3014 10.5195 15.3578 10.6878 15.3578C10.8004 15.3578 10.8562 15.3578 10.8562 15.1889V14.5706L10.6314 14.2891C10.5749 14.2326 10.5188 14.1769 10.6314 14.1201C11.0252 14.008 11.0252 13.8954 11.0817 14.3455L11.1943 14.9081H11.1382H11.1389ZM11.7012 15.4707C11.7012 15.4707 11.5889 15.4707 11.5321 15.5832C11.4855 15.6331 11.4276 15.6719 11.3637 15.6954L11.3073 15.639L11.4199 15.3018C11.4756 15.1328 11.5321 15.1328 11.7012 15.1896L11.8138 15.3018C11.926 15.4143 12.0393 15.47 12.1512 15.4143C12.3199 15.3578 12.2076 15.1896 12.1512 15.1328L11.5889 14.8517C11.4206 14.7392 11.3637 14.627 11.3637 14.458C11.3637 14.3455 11.4763 14.1769 11.6454 14.1201H11.9267C12.0393 14.1201 12.0951 14.1201 12.1515 14.008C12.2084 13.9519 12.3206 13.8954 12.3206 14.008V14.5145H12.1515C12.0393 14.3455 11.9267 14.2334 11.8145 14.2891C11.7019 14.2891 11.6461 14.3455 11.7019 14.458L11.9267 14.627L12.2641 14.7952C12.5454 14.9642 12.4889 15.1328 12.4889 15.3018C12.4889 15.4707 12.3206 15.5832 12.0951 15.5832C11.9557 15.5836 11.8189 15.5451 11.7012 15.4707ZM3.6554 5.06381C3.31835 5.06381 3.0928 4.95129 2.81187 5.00737C2.53057 5.00737 2.30539 5.11952 2.08057 5.17597L1.96835 5.28849L2.08057 5.40101L2.41798 5.45745L4.55577 5.23204L4.66836 5.06381L4.44354 4.95129L3.71224 4.83914L3.59965 5.06455H3.65613L3.6554 5.06381ZM7.25652 15.6961L7.313 15.9215V16.0341H7.20077C7.03243 15.978 6.86336 15.8658 6.69429 15.978V16.1462L7.25652 16.3716C7.48207 16.4284 7.53782 16.5406 7.48207 16.8221C7.48207 17.0475 7.25652 17.1596 7.0317 17.2161C6.92057 17.2373 6.80541 17.2373 6.69429 17.2161V17.4411H6.5817C6.54172 17.3865 6.50431 17.3301 6.46947 17.2729L6.41299 16.8785V16.766C6.52522 16.766 6.58169 16.935 6.69429 16.9914L7.08818 17.0479L7.20077 16.8793L7.03243 16.7667L6.58243 16.5421C6.41336 16.4856 6.41336 16.3167 6.41336 16.2041C6.41336 16.0359 6.4702 15.8669 6.69502 15.8105L6.97632 15.698L7.0328 15.4726H7.14539L7.25799 15.698L7.25652 15.6961ZM5.79355 24.5285C5.70516 24.1704 5.61127 23.8141 5.51188 23.4601L5.39966 23.4036L5.34355 23.4601L5.06225 24.2474C5.04061 24.321 5.04061 24.3991 5.06225 24.4728L5.45614 25.598L5.62521 25.7101L5.68096 25.5412L5.79355 24.5285ZM14.458 14.9646L14.5702 15.2461L15.358 15.9208L15.9203 16.2023C16.2203 16.302 16.4781 16.5006 16.6516 16.7649L16.8771 16.9903C16.9897 17.1589 17.1584 17.2714 17.4393 17.3279H17.5519C17.5519 17.2154 17.4958 17.1215 17.3836 17.0468C16.9633 16.6374 16.5122 16.2606 16.0328 15.9215C15.746 15.7427 15.4647 15.555 15.189 15.3589L14.7951 15.1335L14.458 14.9646ZM12.0951 17.8905C12.3767 17.8905 12.658 17.8905 12.8828 17.6651C13.1645 17.4961 13.2767 16.9903 13.1645 16.7088C13.1612 16.6484 13.1414 16.5904 13.1076 16.5399C12.9954 16.4277 12.9393 16.4277 12.8828 16.5967L12.8263 16.9903L12.7699 17.2157C12.5836 17.1886 12.3936 17.1886 12.2076 17.2157C11.9828 17.2157 11.5889 17.3843 11.5889 17.6094C11.5889 17.834 11.926 17.8905 12.1512 17.8905H12.0943H12.0951ZM4.66836 17.6086L4.72484 17.4397V16.2587L4.83743 16.1462L4.94966 16.203L5.45614 16.7653V16.0341C5.39966 15.8658 5.2878 15.7526 5.39966 15.7526H5.85003L5.68096 16.5967L5.79355 17.3279H5.68096C5.64355 17.3326 5.60614 17.3326 5.56836 17.3279L4.89318 16.5967C4.8642 16.6282 4.8444 16.6667 4.8367 16.7088C4.8367 16.8771 4.94892 17.1025 5.06225 17.2714C5.17448 17.3279 5.17448 17.384 5.00577 17.4397L4.61188 17.4961L4.66836 17.6086ZM3.43058 14.3455L3.99281 14.2891C4.16115 14.2891 4.33022 14.2326 4.33022 14.0637C4.33022 13.8947 4.16115 13.839 4.04892 13.7825C3.59819 13.67 2.81114 13.67 2.24818 13.9515L1.91113 14.2326C1.74206 14.3451 1.79854 14.458 1.91113 14.5137L2.36077 14.7388L2.47336 14.2883L2.75466 14.0629C2.97948 13.9508 3.26114 13.9508 3.54244 13.9508H3.65503L3.59819 14.0629L3.37337 14.1755L3.20503 14.2319C3.20503 14.3444 3.31762 14.3444 3.42985 14.3444M20.1966 14.8524C19.971 14.8524 19.7462 14.6842 19.7462 14.2898L19.3523 14.6842C19.3523 14.7963 19.6897 15.0214 19.9153 15.0778L20.3092 15.5279L20.5347 14.9653C20.5347 14.5152 20.4782 14.178 20.3656 14.0091C20.1973 13.7844 19.8592 13.6154 19.5779 13.4468C19.4653 13.559 19.6343 13.8969 19.9717 14.1216C19.916 14.347 19.916 14.6842 20.253 14.8531H20.1973L20.1966 14.8524ZM14.3454 19.3529C14.3579 19.2404 14.3579 19.1271 14.3454 19.015L14.2328 18.6213V18.5088C14.3454 18.1712 14.4019 17.8897 14.3454 17.6086C14.3183 17.2531 14.3183 16.8954 14.3454 16.5399V16.4834C14.5138 16.4834 14.5702 16.5399 14.6267 16.6524V16.9896C14.6836 17.2707 14.6267 17.5522 14.6267 17.8898L14.5702 19.6897L14.6267 19.9712C14.6836 20.1394 14.6267 20.3649 14.5145 20.5338H14.4019C14.4019 20.2523 14.1771 19.9712 14.1206 19.6333L14.1771 19.5768C14.2893 19.5768 14.3454 19.4643 14.3454 19.3522M1.96835 16.6524C1.96835 16.7649 1.96835 16.9896 2.13668 17.1025V17.215L1.57445 17.1585C1.57445 17.1585 1.74279 16.9896 1.74279 16.8771L1.85502 15.8087L1.74279 15.6397C1.75049 15.5975 1.7703 15.5587 1.79927 15.5272C2.19316 15.6397 2.24964 15.6397 2.36223 15.8087L2.58779 16.4834C2.62959 16.4757 2.66847 16.4567 2.70001 16.427V15.8644C2.70001 15.7522 2.70001 15.6954 2.86908 15.6954H3.20649V15.8644C2.98094 15.8644 2.98094 15.9208 2.86908 16.427L2.8126 16.9896L2.75612 17.215H2.58779C2.46199 16.8855 2.31162 16.5655 2.13705 16.2587H2.08057L2.02483 16.4842C2.02079 16.5215 2.02079 16.5589 2.02483 16.5967L1.96835 16.6531V16.6524ZM8.94467 27.9038C8.85115 27.9096 8.75725 27.9096 8.663 27.9038C8.663 27.7916 8.71911 27.7916 8.77559 27.7916H9.00115C9.33856 27.848 9.56337 27.6226 9.90152 27.5662H11.0832C11.4206 27.7352 11.7576 27.8473 12.04 27.6226C12.2194 27.4976 12.4075 27.3855 12.6023 27.2854C12.6463 27.2653 12.6943 27.2546 12.7427 27.2546C12.7915 27.2546 12.8395 27.2653 12.8836 27.2854C12.8836 27.2854 12.9962 27.4544 12.94 27.5108C12.9257 27.5497 12.9041 27.5845 12.8744 27.6142C12.8454 27.6432 12.8098 27.6659 12.771 27.6798C12.2649 27.8488 11.7584 27.9609 11.1954 28.0177C10.6332 28.0177 10.1271 28.0177 9.56411 27.9052H8.9454L8.94467 27.9038ZM6.24392 12.4334C6.07485 12.4334 5.68096 12.6588 5.68096 12.827V12.9392C5.68096 13.2207 5.68096 13.5018 5.85003 13.7272C5.96226 13.8397 6.01837 13.8962 6.13133 13.7837C6.413 13.6151 6.69429 13.4461 6.86263 13.2214C7.03097 13.1089 7.14393 12.8835 7.25652 12.6588C7.25652 12.5463 7.14393 12.4906 7.03171 12.4341C6.86337 12.3773 6.63781 12.3773 6.5817 12.4341C6.46948 12.4341 6.413 12.5463 6.413 12.6588C6.38512 12.7743 6.34772 12.8875 6.3004 12.9964L6.13207 13.2218C6.11483 13.1104 6.11483 12.9964 6.13207 12.8842C6.13207 12.7717 6.13207 12.6027 6.24466 12.4341M8.7756 16.0333C8.7756 16.2023 8.663 16.3145 8.43819 16.4277C8.32596 16.4842 8.15689 16.5967 7.87596 16.5967C7.87596 16.5967 7.76373 16.5967 7.70762 16.4842C7.70762 16.1462 7.59503 15.8651 7.53855 15.5836L7.65114 15.3589C7.87596 15.1335 8.10151 15.0778 8.38244 15.0778L8.66373 15.19L8.77633 16.0341L8.7756 16.0333ZM7.93207 6.35763C7.93207 6.86379 7.81948 7.31387 7.59466 7.76396C7.55505 7.86658 7.49784 7.96188 7.42632 8.04544L7.25725 7.70824L6.91984 6.75127C6.87399 6.68089 6.83622 6.60539 6.80724 6.52659L7.20113 5.90754C7.20113 5.79502 7.31373 5.79502 7.37021 5.90754L7.93317 6.35763H7.93207ZM22.2786 20.5342H22.4469C22.5093 20.5074 22.5665 20.4693 22.616 20.422L22.8408 20.1405L22.7844 18.9032L22.6718 18.7907H22.1656L21.4901 19.3533C21.4901 19.3533 21.4343 19.4658 21.4901 19.4658L21.6027 19.5222L22.1649 19.2411C22.1781 19.277 22.1781 19.3173 22.1649 19.3533C21.9401 19.5783 21.771 19.8594 21.4894 19.9723V20.0848L21.5462 20.1973L21.8832 20.0291L22.2771 19.6912C22.334 19.7476 22.3897 19.8601 22.2771 19.9166L22.1649 20.0291L21.8275 20.3102V20.4227H21.884C21.9966 20.4227 22.1088 20.4227 22.2214 20.3102L22.5027 20.0291L22.6153 20.1413L22.2779 20.5356L22.2786 20.5342ZM15.189 6.63838C15.189 6.47015 15.4141 6.24474 15.5828 6.30118H15.6397L15.6954 6.63838L15.808 6.86379C16.1451 6.86379 16.4832 6.69482 16.5958 6.4137C16.8206 6.13222 16.9329 5.8511 17.0454 5.56961C17.1019 5.45746 17.158 5.3442 17.2703 5.40101C17.3267 5.40101 17.3829 5.51317 17.3267 5.62642L16.7641 7.31387C16.7073 7.48284 16.6516 7.48284 16.4825 7.42639L15.5256 7.08919C15.431 7.05547 15.3489 6.995 15.2891 6.9151C15.2286 6.83483 15.1937 6.7388 15.1886 6.63838M24.8103 28.6353C25.0919 28.6353 25.3168 28.5789 25.4858 28.4664L25.9362 28.1852L26.2736 28.0727C26.442 28.0727 26.5549 27.9038 26.5549 27.8473C26.5549 27.6783 26.4423 27.6783 26.3294 27.6219L25.4858 27.5097H25.2042L24.642 27.9598C24.5855 28.0163 24.3045 28.1288 24.2481 28.297C24.1355 28.3535 24.1355 28.4656 24.3607 28.5224L24.8103 28.6346L24.8103 28.6353ZM22.9538 27.5101L23.3477 27.6226C23.5732 27.6791 23.7416 27.7352 23.9099 27.6791C24.0225 27.6791 24.1355 27.5669 24.1355 27.398C24.1355 27.2854 24.0232 27.1726 23.9099 27.1165L22.8416 26.8911C22.6732 26.8354 22.5041 26.8354 22.3351 26.9479C22.1095 27.1733 21.829 27.2854 21.5473 27.3419L21.3225 27.3987V27.5669L21.379 27.6791H22.1667L22.9545 27.5108L22.9538 27.5101ZM4.16188 17.384C4.16188 17.4961 4.10613 17.5522 3.93706 17.5522C3.74781 17.5566 3.55894 17.5375 3.37483 17.4954C3.20649 17.4389 3.20649 17.3832 3.15001 17.2707L3.20649 16.1459L3.48779 15.9776L4.10649 16.0898C4.21909 16.0898 4.33168 16.3152 4.33168 16.3713V16.7088C4.33168 16.9903 4.21909 17.215 4.16261 17.3271V17.384H4.16188ZM4.55577 2.19435C4.54843 2.15769 4.54843 2.11884 4.55577 2.08219H4.89318C5.06225 2.13864 5.118 2.13864 5.17448 2.02575C5.28707 1.74427 5.23132 1.51959 5.00614 1.46315C4.85687 1.43675 4.70504 1.43675 4.55577 1.46315L3.88059 1.63211C3.6554 1.68855 3.59892 1.91323 3.76799 2.08219C3.99281 2.3076 4.218 2.58799 4.49929 2.75695C4.72484 2.98236 4.94966 2.98236 5.23059 2.92592C5.34281 2.92592 5.39893 2.86947 5.39893 2.75695C5.40626 2.71773 5.4048 2.67742 5.39563 2.63857C5.38572 2.60008 5.36812 2.5638 5.34281 2.53228C5.2922 2.48683 5.23499 2.44944 5.17411 2.41976L4.55504 2.19435H4.55577ZM23.5729 15.0771H23.6851L23.7416 15.6961V15.8651L23.9099 15.7526L23.9668 15.3589C24.1923 14.7963 24.0232 14.3463 23.7984 13.7837C23.7984 13.6715 23.6858 13.6715 23.5732 13.7272C23.5168 13.7272 23.461 13.8397 23.5167 13.8962V14.1209L23.2912 14.6835L23.2355 14.9646L23.179 16.9903V17.0468C23.1658 17.0827 23.1658 17.123 23.179 17.1589C23.2197 17.1479 23.2578 17.1281 23.2912 17.1025L23.4038 16.7649C23.4038 16.4277 23.5729 16.4277 23.5729 16.0898L23.5729 15.0771ZM16.708 1.4067H16.7645V1.57529C16.708 1.85678 16.5397 2.08145 16.3141 2.30687C16.2019 2.36331 16.2019 2.53154 16.3141 2.58799C16.4267 2.75695 16.5958 2.58799 16.708 2.53228C16.9329 2.25116 17.0454 1.96967 17.1584 1.63247C17.3267 1.29491 17.3267 0.788749 17.1584 0.507629C17.0462 0.395109 16.8771 0.339396 16.7645 0.451553C16.4275 0.788753 16.0893 1.29564 16.0893 1.80144L16.1458 2.02611L16.4275 1.80144L16.7088 1.46388V1.40707L16.708 1.4067ZM28.4114 10.408H28.9744C29.2557 10.5202 29.3683 10.6891 29.424 10.8017L29.4805 10.9703C29.3976 11.0014 29.3088 11.0124 29.2208 11.0032C29.1328 10.9933 29.0484 10.9633 28.9744 10.9145C28.8885 10.8299 28.7947 10.7544 28.6927 10.6891C28.5236 10.6327 28.2988 10.5766 28.1305 10.6891C28.1305 10.8017 28.2988 11.0271 28.4121 11.1392C28.806 11.4207 28.9747 11.4764 29.3121 11.4764H29.8744L29.9308 11.1953C29.9308 10.8574 29.9308 10.5202 29.6496 10.239C29.3121 9.90185 28.8053 9.95756 28.5244 10.0701C28.4429 10.0932 28.3667 10.1313 28.2995 10.1826C28.3186 10.2489 28.3579 10.3079 28.4121 10.3512V10.408L28.4114 10.408ZM2.41798 11.5329V11.1957L2.53057 10.6334C2.54084 10.559 2.54084 10.4835 2.53057 10.4084L2.13668 10.4652C2.02409 10.5216 1.96835 10.6334 1.96835 10.8588V11.4211L2.08057 12.3216C2.08057 12.4906 2.19316 12.547 2.30612 12.4341L2.58779 12.1526L3.15002 11.4779C3.37484 11.2528 3.37484 11.0274 3.31836 10.8028C3.26151 10.6338 3.15002 10.5781 3.03669 10.5781C2.86835 10.5781 2.81187 10.6906 2.75539 10.8028C2.75539 10.9717 2.6428 11.0842 2.58705 11.2528C2.54011 11.3522 2.48327 11.4464 2.41798 11.5343M16.4275 8.77628C16.4275 9.22636 16.4275 9.73289 16.3149 10.2391L16.1465 10.408L15.9782 10.2391C15.7527 9.62 15.5278 9.00169 15.4152 8.32656L15.2469 7.93219C15.2469 7.76396 15.2469 7.70751 15.4152 7.76396C15.7527 7.76396 15.9782 7.93219 16.3156 8.04544L16.3721 8.27085V8.72093L16.4286 8.77737L16.4275 8.77628ZM3.43058 5.51317L3.31835 6.24473C3.31835 6.47014 3.43058 6.63837 3.6554 6.69482C4.21799 6.97594 4.89318 7.03275 5.51189 7.03275L5.62448 6.92023L5.568 6.80771H5.39893L4.55504 6.41407C4.47215 6.39391 4.39587 6.35579 4.33022 6.30192C4.27374 6.18939 4.33022 6.07651 4.44281 6.07651L4.72411 6.13295L5.28634 6.41407C5.28634 6.47088 5.34282 6.52659 5.39893 6.41407C5.45541 6.35763 5.51116 6.30192 5.39893 6.18866L5.00504 5.85183C4.55467 5.68286 4.10467 5.5139 3.42948 5.57035V5.5139L3.43058 5.51317ZM31.1679 7.76396L31.1114 7.20135C30.9988 6.80734 30.661 6.52659 30.2675 6.52659C30.042 6.52659 29.9862 6.52659 30.042 6.75127L30.3236 7.14564C30.4359 7.37031 30.5492 7.53928 30.5492 7.70824C30.5459 7.78631 30.5268 7.86255 30.4927 7.93292C30.3236 7.87721 30.2675 7.70824 30.2675 7.6518C30.211 7.48284 30.211 7.37031 30.0988 7.25743C30.0988 7.14491 30.042 7.14491 29.9862 7.14491C29.9305 7.14491 29.8736 7.14491 29.8736 7.25743C29.8736 7.70751 29.9305 8.27012 30.4359 8.66376L30.7733 8.88917C30.8859 8.94561 30.9416 8.88917 30.9981 8.77664C31.1055 8.45008 31.1628 8.10848 31.1672 7.76396M30.8305 3.99432H30.4366C30.4366 3.99432 30.3244 4.21972 30.4366 4.21972C30.4366 4.27653 30.4931 4.33225 30.6049 4.33225C30.8305 4.33225 30.9988 4.33225 31.2805 4.44476L31.4492 4.50121L31.337 4.55692C30.9431 4.613 30.6614 4.66944 30.3244 4.44476L30.2118 4.38832C30.0992 4.33151 30.0427 4.38832 30.0992 4.50048C30.0992 4.66871 30.2675 4.83767 30.6057 4.95056C30.8312 5.06308 31.056 5.17597 31.2809 5.17597L32.1248 5.11952C32.2938 5.11952 32.4622 5.00737 32.4622 4.89412L32.4057 4.55655L32.1805 4.33151C31.8435 3.99395 31.6183 3.76891 31.0553 3.76891C31.0553 3.76891 30.9431 3.99395 30.8305 3.99395M25.5416 12.6024C25.429 12.3209 25.2603 12.208 24.9794 12.1519H24.6419L24.1355 12.0398C23.9668 12.0398 23.8542 12.2087 23.7984 12.4341V12.5463L24.1355 12.6588L24.3038 12.8842C24.3038 12.9407 24.1916 13.0532 24.0225 13.0532C23.8534 13.0532 23.8542 13.2218 23.9099 13.39C23.9099 13.559 23.9668 13.7279 24.1355 13.8969L24.3606 13.7279C24.4729 13.6154 24.4729 13.5025 24.4729 13.39C24.4729 12.9964 24.6412 12.771 24.9229 12.4906L24.8103 13.1089C24.7545 13.559 24.5855 13.8969 24.1916 14.2341H24.3599C24.4296 14.2477 24.5018 14.2444 24.5704 14.2253C24.6386 14.2059 24.7017 14.1703 24.7538 14.1216C24.9221 13.9533 25.0351 13.7844 25.0912 13.559L25.2034 13.3343L25.2603 13.5025V14.0651L25.4851 13.8969C25.6542 13.5025 25.7106 12.9399 25.5416 12.6027M18.9591 19.1839C18.8466 18.5088 18.3969 18.0587 17.9465 17.7208L17.7214 17.5522H17.4965V17.7208L17.6091 19.0707L17.7214 20.0276C17.7214 20.1959 17.834 20.2523 18.003 20.1959L18.6217 19.8587C18.7901 19.7465 18.9591 19.6333 18.8466 19.1839H18.9591ZM3.76799 8.32656C3.76799 7.93219 3.6554 7.6518 3.54317 7.31387C3.43058 6.97667 3.20576 6.80771 3.0928 6.80771C2.92446 6.80771 2.64207 7.14564 2.53057 7.37031C2.45795 7.60708 2.43888 7.85668 2.47372 8.10188C2.47372 8.55197 2.58632 8.94561 2.86761 9.33925C2.86761 9.45177 3.03595 9.56466 3.14928 9.45177L3.54317 9.05813C3.6554 8.83272 3.76799 8.55197 3.76799 8.32656ZM21.3217 7.20135C21.3217 6.80734 20.9843 6.63911 20.8714 6.30118C20.703 5.96325 20.5897 5.96325 20.3091 6.24474C20.0275 6.52586 19.8027 6.80734 19.7462 7.20098C19.5779 7.59462 19.6336 7.98827 19.7462 8.38264C19.7462 8.49479 19.8027 8.66376 19.971 8.60732C20.0106 8.58569 20.0422 8.55197 20.062 8.51202C20.0821 8.47171 20.0895 8.42699 20.0836 8.38264C20.0836 8.04471 20.1401 7.70751 20.3084 7.48211L20.4775 7.31314V7.53855L20.3649 8.27012V8.7202C20.534 8.88917 20.5897 8.88917 20.6466 8.77665C20.984 8.27085 21.3217 7.53928 21.3217 7.20135ZM20.5347 3.43208C20.5347 3.60067 20.4221 3.7132 20.3092 3.65748C19.9717 3.54496 19.7462 3.20703 19.4088 3.09488C19.2966 3.03843 19.2404 3.09488 19.184 3.26311L19.0714 4.05112C19.0714 4.61373 19.353 4.83841 19.6343 5.12026V5.28849L18.5091 5.8511C18.4527 5.90681 18.2843 5.96325 18.1721 5.8511C18.0595 5.79465 18.0595 5.68213 18.0595 5.51317L18.4534 3.88143C18.6789 3.03771 19.0164 2.75622 19.6351 2.69978H20.198C20.3664 2.69978 20.4793 2.69978 20.4793 2.86874V3.43135H20.5358L20.5347 3.43208ZM30.9423 3.60068L31.561 3.37527C32.0675 3.20667 32.3488 2.86947 32.4614 2.36257C32.5179 2.19398 32.4614 2.13717 32.2931 2.08145L31.9557 2.02501C31.6744 1.91249 31.6183 2.02501 31.5053 2.36257C31.3927 2.58762 31.2805 2.86874 31.0553 3.0377C30.9988 3.09415 30.7183 2.92518 30.6614 2.86874C31.1121 2.58762 31.4492 2.13717 31.6744 1.57493C31.6744 1.51812 31.6744 1.40596 31.5618 1.34952C31.3953 1.31067 31.2218 1.31067 31.0553 1.34952C30.4927 1.34952 29.6488 1.91176 29.3675 2.58689C29.3114 2.64333 29.3675 2.81229 29.3675 2.81229H29.7049L29.7614 2.69977C29.9862 2.30613 30.3236 2.13717 30.7183 1.96857H30.8305C30.843 2.00449 30.843 2.04481 30.8305 2.08072C30.7813 2.128 30.7241 2.16612 30.6614 2.19324L30.2675 2.47436L29.9862 2.69904V2.868L30.1553 2.92445H30.3801L30.6049 3.31809C30.6614 3.43061 30.774 3.54349 30.9423 3.54349V3.60068ZM2.53057 1.96893L2.81187 2.36331C2.98021 2.58799 3.03669 2.81339 3.09317 3.03843C3.15002 3.20667 3.26151 3.20667 3.37484 3.15059C3.44379 3.11064 3.501 3.05346 3.54061 2.98382C3.57985 2.91492 3.60112 2.83575 3.59965 2.75621C3.57215 2.59751 3.51493 2.44504 3.43132 2.30613C3.31872 1.91176 3.43132 1.51811 3.76873 1.237C3.93707 1.18056 3.99355 1.01232 3.99355 0.843356L3.82521 0.280753C3.82521 0.168229 3.65613 0.168229 3.59965 0.224305C3.15002 0.449716 2.6428 1.06803 3.03743 1.63064V1.74316C2.98168 1.74756 2.92483 1.74756 2.86909 1.74316L2.08131 0.955142C1.98009 0.87964 1.86566 0.822462 1.7439 0.786178C1.7439 0.842622 1.63167 1.0673 1.7439 1.51775C1.7439 1.91139 1.85649 2.30539 2.13779 2.86727L2.41945 3.20447L2.7565 3.31699V2.97979C2.69342 2.71443 2.6186 2.45127 2.53168 2.19251L2.4752 1.9671H2.53168L2.53057 1.96893ZM21.7156 8.66376C21.7164 8.44604 21.7747 8.23273 21.884 8.04544C21.9966 8.04544 22.1088 8.04544 22.1656 8.15759C22.3343 8.55197 22.6718 8.94487 23.1221 9.17028C23.2347 9.2828 23.4038 9.2828 23.516 9.2828L23.6286 8.55197C23.6286 8.27085 23.516 7.98936 23.2912 7.8204C23.1229 7.59499 22.8416 7.42639 22.6167 7.25816L22.3351 7.3146V7.54001C22.4477 7.70897 22.729 7.87757 22.7851 8.04617V8.21477C22.7436 8.20487 22.7055 8.18545 22.6725 8.15832C22.5555 8.07036 22.4429 7.97616 22.3351 7.8772C22.1689 7.74452 22.0175 7.59388 21.8847 7.42675C21.7721 7.3146 21.6599 7.3146 21.6034 7.42675C21.3782 7.82113 21.2095 8.21477 21.2095 8.66448C21.0969 9.22709 21.3782 9.73362 21.8282 9.95829C22.0538 10.0708 22.2221 10.0147 22.3343 9.84614L22.5595 9.28353V9.05886L22.1656 8.66448C22.1169 8.6172 22.0597 8.57909 21.9973 8.55196C21.9874 8.58898 21.9874 8.62746 21.9973 8.66448V9.22709C22.0035 9.26374 22.0035 9.30186 21.9973 9.33924C21.9438 9.32348 21.8957 9.29453 21.8565 9.25531C21.8169 9.21573 21.7879 9.16771 21.7718 9.11457L21.7156 8.72019V8.66376ZM14.9641 11.0828C14.9641 11.3639 14.9641 11.4764 14.5138 11.3639L14.1199 11.3075C13.9508 11.2517 13.7825 11.1953 13.6695 11.0263C13.5012 10.8009 13.2756 10.8009 13.1073 11.0263L12.9389 11.1385L12.8263 11.251V11.082C12.8263 10.8566 12.9389 10.7445 13.1076 10.632L13.5584 10.4637C13.9523 10.3512 14.1206 10.1258 14.1206 9.67571L14.1771 8.83199C14.1771 8.66302 14.1771 8.60657 13.9515 8.66302L12.9947 9.05739C12.9441 9.07718 12.8975 9.10724 12.8586 9.14609C12.8197 9.18494 12.7897 9.23149 12.7699 9.28207L12.545 9.78896L12.4882 9.8454L12.376 9.78896L12.1512 9.45103C12.0815 9.31688 12.0063 9.18567 11.926 9.05739C11.7573 8.88842 11.7573 8.83198 11.926 8.71946L12.4882 8.26937C12.7134 8.04396 12.8256 7.70677 12.8256 7.36921V6.8066C12.8256 6.58193 12.8256 6.52512 13.1073 6.58193C13.2195 6.58193 13.3886 6.58193 13.5012 6.69408L14.2325 7.03201C14.3447 7.14416 14.458 7.25669 14.458 7.36921C14.458 7.59462 14.3454 7.70677 14.1763 7.65033C13.9218 7.53524 13.6581 7.44141 13.3886 7.36921C13.2202 7.36921 13.1073 7.36921 13.0512 7.5378C13.0512 7.81929 13.276 7.81929 13.276 7.93181C13.1638 8.15722 12.8263 8.21293 12.7699 8.43834C12.7699 8.60657 12.7699 8.71946 12.9389 8.66301L13.4451 8.49478L14.1206 8.15722C14.4019 8.0447 14.5702 8.10041 14.6267 8.43834L15.0206 10.7445V11.082H14.9641L14.9641 11.0828ZM26.2168 22.9532C25.8801 22.9895 25.543 23.0085 25.2042 23.01L25.3168 22.8975C25.5981 22.785 25.879 22.6728 26.0481 22.5038C26.1603 22.3913 26.1603 22.3349 26.1603 22.2227C25.802 22.3836 25.4231 22.4972 25.0351 22.5603H24.9229L25.8797 21.8855C26.0481 21.773 25.8797 21.7166 25.8797 21.6601L24.8668 21.9977H24.8103L24.9794 21.8291L25.9362 21.2665V21.154H25.7671L24.6419 21.2665H24.5297V21.21C24.7622 21.1008 24.9728 20.9476 25.1484 20.7596C25.2049 20.6474 25.2049 20.591 25.1484 20.5349L24.9801 20.6474L24.361 20.7039V20.5914L24.811 20.3102L25.0923 20.0848V19.9723C24.8543 20.0518 24.6089 20.1083 24.361 20.1405C24.3053 20.153 24.2481 20.153 24.1927 20.1405L24.2488 20.0284L25.0366 19.634C25.1492 19.5776 25.2049 19.4651 25.2049 19.4093H25.0923L24.361 19.634L24.1927 19.5215L24.3053 19.4093L25.3179 18.9589L25.8801 18.5088L26.2175 18.1712V18.1144C25.6553 18.3959 25.4862 18.5649 25.3175 18.677C25.0333 18.8574 24.7322 19.0084 24.4171 19.1271C24.3749 19.1194 24.3357 19.1004 24.3045 19.0707C24.3001 19.0333 24.3001 18.9959 24.3045 18.9585C24.4171 18.9585 24.5862 18.7335 24.6984 18.5649L25.7114 18.0587L26.2175 17.7208V17.4954L25.0923 18.058V17.889C25.374 17.7204 25.7671 17.4389 26.0484 17.1014V16.9889L25.8801 17.0453L25.3179 17.2707H25.2614L25.3179 17.0453C25.5973 16.8411 25.8449 16.5937 26.0492 16.3141V16.0887C25.8243 16.2573 25.543 16.3698 25.3179 16.4263H25.2614V16.3141C25.543 16.0326 25.7679 15.8636 25.9369 15.5825V15.47L25.3179 15.639H25.2056V15.47L25.7118 14.9074V14.7952C25.5816 14.8209 25.4503 14.8392 25.3179 14.8517C25.2614 14.8517 25.2056 14.8517 25.1492 14.7392L25.3179 14.6835L25.543 14.5145C25.5889 14.4863 25.6278 14.4482 25.6553 14.4023L25.4862 14.3455L24.9801 14.4023C24.7553 14.4771 24.6236 14.5522 24.5862 14.6278L24.1923 15.8651C24.1923 15.9776 24.0797 16.0898 23.9668 16.1462C23.7984 16.203 23.8542 16.3152 23.7984 16.4277C23.7416 16.7649 23.6858 16.7649 23.5732 16.9903L23.2362 17.5526H23.1236V17.1589L22.9553 16.6531V16.4277L23.011 15.9216L23.0678 14.9646L23.011 14.9081C22.982 14.9397 22.9626 14.9785 22.9553 15.0207L22.7862 15.6954C22.674 16.2016 22.7862 16.596 22.7862 17.1017C22.7297 17.4954 22.6178 17.8898 22.674 18.2834V18.5088L23.0678 18.3967C23.3491 18.2841 23.574 18.2841 23.8556 18.003C24.024 17.8341 24.024 17.4961 24.0804 17.215C24.1927 16.8771 24.3053 16.7649 24.4179 16.6524L24.5301 16.7088L24.3617 17.215C24.3053 17.384 24.1934 17.6651 24.3617 17.7208H24.5301V17.8333C24.3617 18.0023 24.1927 18.227 23.4049 18.4524C23.2927 18.4524 23.0679 18.7335 23.0679 18.846C23.0466 19.0142 23.0466 19.1843 23.0679 19.3529C23.1801 20.1402 23.574 20.9278 24.0243 21.7151C24.4182 22.3342 24.6999 22.8403 25.1495 23.2904C25.3186 23.4594 25.5434 23.5719 25.8808 23.4594L26.3308 23.1782V23.0093L26.2182 22.9528L26.2168 22.9532ZM1.17983 17.046C1.23631 17.384 1.40539 17.6086 1.74279 17.7776C2.13668 18.003 2.75539 18.0587 3.26151 18.1144L5.28707 17.9462C6.35577 17.7208 7.59392 17.2714 8.55004 16.8206C9.17352 16.4816 9.8344 16.2173 10.5195 16.0333C11.2218 15.8618 11.9549 15.8618 12.6573 16.0333C12.9947 16.0333 13.0512 16.0333 13.0512 15.8087L12.9389 15.3582C12.8821 14.796 12.8821 14.3455 12.6573 13.8397C12.6573 13.7833 12.5451 13.6708 12.376 13.6143C12.2076 13.5018 12.0386 13.4453 11.8137 13.4453C11.4591 13.3929 11.0997 13.3929 10.745 13.4453C10.1784 13.5274 9.62719 13.6982 9.11374 13.9519L7.59465 14.796C6.91323 15.1995 6.13609 15.4128 5.34428 15.415L3.88094 15.3589C3.13534 15.3314 2.40551 15.139 1.74316 14.7963C1.63093 14.6842 1.51834 14.7399 1.46186 14.9089L1.34927 15.3032C1.23704 15.7533 1.12445 16.4284 1.18056 17.0475M11.8138 21.9973C12.0393 21.9973 12.376 22.1095 12.376 22.391C12.3602 22.4294 12.3419 22.4672 12.3199 22.5031H12.2634C12.1512 22.2777 11.9821 22.1655 11.7004 22.222C11.4837 22.2759 11.2875 22.3935 11.1382 22.5596C11.026 22.6721 11.1943 22.7285 11.3634 22.841L11.6447 23.01L11.4756 23.3476C11.3586 23.301 11.246 23.2446 11.1382 23.1786L11.3065 22.9532H11.6439C11.6439 23.2347 11.2501 24.1909 11.4191 24.2474C11.9256 24.3038 12.5443 23.6848 12.6565 22.7285C12.6565 22.391 12.8249 22.1659 13.2188 22.1095C13.6127 21.9405 13.781 21.7151 13.781 21.2658C13.7245 20.9846 13.8378 21.0968 14.0062 20.8714L14.1184 20.7031C14.1184 20.8157 14.231 20.9278 14.1753 21.0403C14.0627 21.3783 14.1753 21.7151 14.3436 22.053L14.7375 23.0093L14.9623 23.1218C15.2436 23.684 15.6375 24.641 16.0875 25.0339C16.4814 25.3718 16.8753 25.9345 17.2123 26.2713C17.494 26.4402 17.6066 26.9464 17.8879 27.0589C18.0569 27.0589 18.0569 27.2275 18.0569 27.3965C18.0569 27.5655 18.0569 27.6212 18.1692 27.6212H18.5631C18.6757 27.5647 18.7882 27.6212 18.7314 27.7337C18.7314 27.7901 18.6757 27.8462 18.5631 27.8462H18.1692L18.0008 27.9027L18.0577 28.0716L18.7321 28.2399L18.8447 28.2963L18.7321 28.4653C18.6393 28.4847 18.5436 28.4847 18.4508 28.4653C18.2825 28.4653 18.0569 28.2963 17.8886 28.2399L17.7203 28.0716H17.4951V28.3527L17.5512 28.5217L17.3829 28.5782L16.8764 28.2402C16.7073 28.1281 16.539 28.1281 16.3134 28.2402L15.7512 28.6346C15.5264 28.7471 15.3016 29.0282 15.0203 29.0282C14.8512 29.0282 14.4573 28.7471 14.3447 28.691L13.5569 28.5224C13.2756 28.4656 12.994 28.5224 12.7691 28.691L11.644 28.86H9.9558C9.72659 28.8626 9.49883 28.9007 9.28135 28.9725H9.0558C8.88746 28.9725 8.71839 28.9725 8.60579 28.86C8.53024 28.8153 8.44626 28.7871 8.3586 28.7772C8.27132 28.7673 8.18293 28.7772 8.09968 28.8036H7.53672C7.36838 28.5789 6.97449 28.241 6.80542 28.297C6.13023 28.4092 5.79282 28.8593 5.11727 28.6346C4.66763 28.5224 4.38633 28.4092 3.9356 28.5782H3.37337C3.20503 28.5782 3.14855 28.5782 3.20503 28.3527V28.2963C3.20503 28.1281 3.09281 27.9591 2.92373 28.0148C2.69818 28.0716 2.58632 28.2963 2.41725 28.352C2.13596 28.521 1.85429 28.4645 1.4604 28.352C1.23559 28.2399 1.01077 28.2956 0.785949 28.4085C0.616876 28.4653 0.392058 28.8589 0.222989 28.8589L0.0546509 28.7464V28.5774C0.111131 28.4085 0.335949 28.2399 0.448542 28.1838C0.842433 28.0148 1.23632 27.9584 1.68596 28.0148C1.91114 28.0716 2.13596 28.1273 2.30503 28.0148C2.47337 27.9584 2.64208 27.9584 2.75467 27.8462C3.03597 27.7337 3.26115 27.6208 3.54245 27.7337C3.76727 27.6212 3.82375 27.5647 3.93634 27.3965V26.6092L4.218 25.9345C4.218 25.8219 4.33023 25.8219 4.38671 25.8219C4.61189 26.1031 4.83671 26.3845 4.72412 26.6657C4.66764 26.8907 5.06153 27.0029 5.00579 27.2283C4.94894 27.3408 5.00579 27.4537 5.11801 27.4537H5.2306C5.34283 27.4537 5.34283 27.3972 5.34283 27.2283C5.34503 26.5883 5.2108 25.9553 4.94894 25.3719L4.78023 24.9218C4.61189 24.6403 4.66764 24.3592 4.78023 24.0777L4.94894 23.5154C5.0498 23.2446 5.25151 23.0232 5.51117 22.8964L5.67951 22.9528C6.0734 23.5154 6.24247 24.2466 6.01692 24.9782L5.90469 25.5973V25.7662L6.01692 25.6537C6.24247 25.3726 6.46728 25.0911 6.57988 24.7539C6.74821 24.4163 7.02951 24.3038 7.36766 24.1917C7.70507 24.1917 7.81766 24.1917 7.70507 24.5292L7.53599 25.0918C7.50702 25.2568 7.44137 25.4133 7.34418 25.5492C7.24663 25.6852 7.12047 25.7985 6.97376 25.8791C6.80543 25.8791 6.63635 26.0481 6.52413 26.1602C6.46362 26.1899 6.4064 26.228 6.35505 26.2727V26.4417H6.63635C6.74895 26.2727 6.91802 26.2163 7.08672 26.1045L7.64932 25.7666C7.72413 25.7666 7.76154 25.823 7.76154 25.9356C7.76154 26.1045 7.76154 26.3292 7.59247 26.3856L6.97376 26.5546C6.86851 26.614 6.77315 26.6902 6.69247 26.7793L6.46728 27.2297V27.3987H6.63562L7.19821 26.8361C7.36692 26.7236 7.42377 26.7793 7.47951 26.9482C7.49712 27.0318 7.53599 27.1095 7.59211 27.1737L7.81692 27.0047L7.92915 26.78C7.92915 26.6111 8.21081 25.9363 8.37988 25.7109L8.54822 25.7673V26.4989C8.54822 26.78 8.6047 26.8365 8.82952 26.7243L9.50471 26.3864H9.67304V26.5553L9.44823 26.8365V27.0615H9.6173L10.0112 26.8365H10.6299L11.249 27.0615C11.4177 27.0615 11.6429 27.0615 11.8116 26.949C12.0826 26.8123 12.3654 26.7001 12.6562 26.6118C13.0791 26.4784 13.4649 26.2471 13.781 25.937L14.0062 25.7681C14.1184 25.7116 14.1753 25.4309 14.1753 25.3744V24.2492L14.2875 24.0245H14.4001V25.9935C14.4001 26.106 14.231 26.2746 14.1184 26.2746C13.4432 26.5561 12.7119 26.8372 11.9806 27.0062C11.6432 27.1187 11.3055 27.0626 10.968 27.0626H10.1803C9.95471 27.0626 9.67378 27.288 9.44896 27.288L7.76082 27.457L6.24173 27.8506C6.11887 27.8829 6.00371 27.94 5.90469 28.0196L5.84784 28.1321L6.01618 28.1885H6.35359C6.691 28.1794 7.02915 28.1794 7.36656 28.1885L7.59137 28.3007C7.76045 28.4132 7.92879 28.4132 8.15434 28.4132C8.32304 28.3568 8.49138 28.4132 8.66045 28.5257C8.94212 28.7511 8.99786 28.7511 9.33527 28.5822C9.61657 28.4132 9.89823 28.4132 10.1795 28.4697C10.5169 28.4697 10.8544 28.4697 11.1921 28.5822L11.9799 28.6943C12.4864 28.6943 12.8803 28.6379 13.1616 28.2443L13.6116 27.6252C13.7238 27.457 13.8371 27.4005 14.0055 27.4005L15.1307 27.288C15.2997 27.288 15.412 27.5134 15.412 27.6252C15.412 27.737 15.3562 27.8506 15.2436 27.7942H14.4001C14.1184 27.7377 13.8936 27.7942 13.7245 28.0196C13.6123 28.1321 13.6681 28.1885 13.781 28.2443H14.0062C14.1184 28.2443 14.1753 28.3568 14.231 28.4697C14.231 28.5822 14.4566 28.6386 14.7375 28.6386L15.6375 28.5822C15.7501 28.5822 15.8623 28.3568 15.9749 28.2443C16.1997 27.9631 16.3123 27.8506 16.7062 27.9631C16.9875 27.9631 17.1566 27.7377 17.3814 27.7377C17.6631 27.7377 17.5497 27.3441 17.4383 27.1751C17.3282 26.9732 17.1962 26.7848 17.044 26.6125C16.6501 26.3314 16.3688 25.7688 16.0314 25.3187C15.7501 25.0372 15.4684 24.8683 15.2436 24.5314C15.0668 24.236 14.8978 23.9358 14.7375 23.6309L14.4001 22.9561L14.0627 22.45C13.8936 22.281 13.5005 22.45 13.2749 22.5064L13.0501 22.6754C13.6123 23.1255 13.6123 23.8006 13.444 24.2507C13.444 24.4196 13.3314 24.4196 13.1623 24.3632L12.7684 24.1942H12.431L11.4184 24.7568C11.2493 24.5314 10.968 24.0253 10.968 23.7999C10.968 23.5745 11.0806 23.4062 11.1371 23.2373C10.9409 23.1394 10.7531 23.0269 10.5742 22.8993V22.7311C10.968 22.3935 11.4184 22.0563 11.8116 22.0563V21.9999L11.8138 21.9973ZM30.9988 9.67645L30.1553 9.62C29.9862 9.62 29.6488 9.62 29.6488 9.78897L29.8172 9.9572C30.211 10.2383 31.3927 10.2948 31.8427 10.2383C31.8644 10.1265 31.8644 10.0122 31.8427 9.90113C31.6744 9.56356 31.2798 9.22637 30.8859 9.11311C30.492 9.00096 29.9855 9.00096 29.6481 9.11311L29.5359 8.83199C29.6389 8.31227 29.6389 7.77642 29.5359 7.2567C29.5359 6.97558 29.4794 6.86306 29.311 6.69409C29.2542 6.58194 29.142 6.58194 29.0855 6.69409C28.9846 6.76007 28.89 6.83484 28.8038 6.91951C28.4099 7.42567 28.4664 7.70752 28.5225 8.43909L28.7473 8.49553C28.8599 8.49553 28.9164 8.42039 28.9164 8.27012L28.9729 7.70752C28.9861 7.66757 29.0052 7.62945 29.0294 7.595L29.1977 7.70752V7.93219C29.1977 8.32656 29.0294 8.60732 29.0294 8.77628C29.0294 8.83273 29.311 8.94488 29.2542 9.0574C29.2542 9.16992 28.8038 9.22637 28.5233 9.28208C28.3549 9.0574 28.1859 8.832 27.8477 8.71948C27.6794 8.66303 27.4538 8.60732 27.6229 8.4948L27.8477 8.38265C28.2416 8.21368 28.1294 7.98828 28.0733 7.59463C28.0733 7.48211 28.0168 7.42567 27.9042 7.42567C27.6794 7.42567 27.5668 7.42567 27.342 7.53782L27.1171 7.76323L26.6668 8.26939H26.4984V8.15724L26.8358 7.2567C26.8358 7.08847 26.9481 7.03203 27.0607 7.03203C27.3511 7.12512 27.6618 7.13795 27.9588 7.06794C28.2563 6.99904 28.5291 6.84986 28.7481 6.63765C28.8603 6.41298 28.8603 6.35653 28.6355 6.18757C28.2981 5.90609 27.8477 5.73749 27.3412 5.90609C27.2532 5.94237 27.1758 6.00101 27.1164 6.07505L27.0042 6.30046H27.6229L27.792 6.24401L27.9042 6.30046L27.792 6.41298L27.4546 6.46942L26.779 6.63765C26.6668 6.6941 26.6107 6.63765 26.6107 6.52513C26.6107 6.35653 26.6107 6.18757 26.779 6.07505C27.0607 5.85037 27.2297 5.56925 27.3412 5.23132C27.3412 5.00665 27.1729 4.72516 27.1164 4.55656V4.44404L27.8477 4.78124C27.9603 5.40029 28.3542 5.85037 28.9736 6.0186L29.5359 6.24401C29.7607 6.24401 29.8733 6.24401 29.8733 6.0186V5.73748L30.2672 5.62496C30.6042 5.62496 30.9416 5.79393 31.2798 5.90608L31.3923 6.07504H31.2233C30.9416 6.07504 30.7168 5.96289 30.492 5.90608C30.3229 5.90608 30.2103 5.96289 30.1546 6.13149C30.2672 6.30045 30.7168 6.52586 30.9423 6.58194C31.1679 6.63765 32.0675 6.75053 32.0675 6.52586C32.0569 6.27809 32.0195 6.03289 31.9549 5.79466C31.9549 5.56925 31.7301 5.45673 31.561 5.40028C31.1672 5.28776 30.8859 5.23132 30.4359 5.23132H30.2675L29.8172 5.40028V5.1188C29.7049 4.72479 29.5359 4.66872 29.2549 4.55656V4.27508C29.5366 4.10611 29.8172 3.88071 29.9305 3.71247L29.5366 3.48707C29.1992 3.37491 29.1427 3.20595 28.861 3.09342C28.6817 3.02378 28.491 2.9864 28.2981 2.98127C28.0733 2.98127 27.792 2.98127 27.7358 3.09342C27.7358 3.09342 27.7358 3.20594 27.8484 3.26165C28.0175 3.43062 28.4114 3.48707 28.5797 3.65603H28.6362L28.5797 3.71247C28.3263 3.71247 28.0766 3.6542 27.8484 3.54351L27.6236 3.37491C27.4553 3.3181 27.3984 3.37491 27.2862 3.54351C27.2301 3.71247 27.2862 3.76892 27.4553 3.82499C27.8492 4.04967 28.1305 4.21863 28.637 4.27508L28.7492 4.50049C28.5427 4.48656 28.3362 4.4675 28.1305 4.44404C27.9959 4.42022 27.8635 4.38283 27.7366 4.33152L26.8931 3.88144L26.3301 3.7132C26.274 3.65676 26.2175 3.60068 26.3301 3.54424L27.8492 2.58763H28.1305C28.3553 2.58763 28.4679 2.69978 28.6927 2.75623C28.861 2.81304 28.9744 2.86875 29.0301 2.75623C29.0664 2.45935 29.1621 2.172 29.3114 1.9125C29.5366 1.57531 29.8736 1.40671 30.2683 1.12522C30.4931 0.618691 30.9996 0.0560873 31.1686 0.0560873C31.7316 0.0560873 32.1812 0.956258 32.2938 1.29345C32.3503 1.57494 31.9564 1.80035 32.2373 1.80035C32.4622 1.80035 32.6877 1.80035 32.6877 2.02503C32.6877 2.36259 32.5751 2.75623 32.406 2.98127C32.2377 3.20595 32.0122 3.54351 31.7316 3.71248V3.825C32.1812 4.10612 32.6884 4.3876 32.6884 4.83769C32.6884 5.11881 32.6316 5.28777 32.4629 5.40029C32.3503 5.51244 32.2377 5.6257 32.2377 5.79467V6.63839C32.2377 6.8638 31.5625 6.91951 31.5064 7.03276C31.608 7.6049 31.5288 8.19463 31.2816 8.72021L31.4507 9.0017C32.1255 9.50749 32.2384 9.95758 32.2946 10.2955C32.1255 10.5209 31.7881 10.6891 31.732 10.6891C31.2258 10.6891 30.269 10.352 30.0442 10.2955C29.9877 10.4645 30.0442 10.5766 30.1007 10.8581C30.2133 11.0835 30.382 11.2525 30.382 11.5329C30.382 11.6454 30.382 11.8144 30.0449 11.8708C29.5003 11.9097 28.9612 11.7499 28.5258 11.4207L28.3006 11.3082C28.1323 11.1957 27.9636 11.3082 27.9068 11.4207L27.7945 11.7583C27.738 11.9833 27.6255 11.9833 27.4006 11.9272C26.6693 11.7583 26.3312 11.0271 26.3312 10.352L26.388 10.2398L26.5003 10.2962C26.5003 10.4652 26.5003 10.5774 26.6129 10.6899C26.6129 10.8588 26.6686 11.0843 26.7812 11.2525C26.9495 11.4772 27.1186 11.6461 27.3434 11.6461C27.4556 11.6461 27.5125 11.5893 27.5682 11.4207C27.7373 11.1392 27.9057 10.8581 27.8495 10.5209C27.8495 10.4084 27.7938 10.2398 27.6812 10.1265L27.4564 9.90187L27.6247 9.78935C27.9621 9.95758 28.187 9.90187 28.356 9.78935C28.5244 9.78935 28.5808 9.6772 28.6377 9.56394C29.0085 9.47011 29.384 9.39534 29.7625 9.33853C30.2132 9.33853 30.6629 9.39534 31.0568 9.56394V9.67646L30.9988 9.67645ZM22.5599 21.1529L22.6725 21.8276V23.0085C22.5599 23.6837 22.6725 24.4149 22.5599 25.09L22.4477 26.4403C22.4477 26.6092 22.4477 26.6657 22.6167 26.6657C22.9538 26.7782 23.179 26.7782 23.3477 26.7782C23.8542 26.7782 24.1923 26.5535 24.1355 26.2713L24.0232 25.709C23.9106 25.1464 23.9106 24.921 23.9106 24.3592H24.0232L24.4171 25.9345C24.5297 26.2713 24.4171 26.8907 24.5297 27.2283C25.374 27.3408 26.3858 27.2283 26.7805 27.2283C26.7805 26.4967 26.7805 25.7655 26.4992 25.484L25.7679 24.9218C25.4158 24.6568 25.1114 24.3328 24.8675 23.9655C24.4736 23.4029 24.4179 23.1775 24.0797 22.6156L23.3484 21.3215C23.2681 21.1811 23.1742 21.0495 23.0671 20.9274L22.2793 20.7592C21.8854 20.7592 21.6606 20.7031 21.4354 20.4777C21.2664 20.2523 21.2099 20.1402 21.3232 19.9151C21.3232 19.7465 21.3232 19.6897 21.2106 19.5776C21.098 19.4093 21.098 19.2961 21.2106 19.1839C21.4923 18.9585 21.8293 18.6778 22.2232 18.6213H22.2801L22.2232 18.2834L21.548 18.3959C21.0415 18.3959 20.6477 18.1705 20.4793 17.5522L20.0289 16.427C20.0289 16.258 20.0289 16.089 20.1415 15.8644L19.7477 15.3018C19.466 15.1896 19.1854 15.0764 19.0164 14.8517C18.9038 14.7392 18.8473 14.7392 18.7908 14.7952L18.6225 14.9642C18.5099 15.0764 18.3408 15.0764 18.1721 14.9642C18.0038 14.9642 17.8904 14.7388 17.8904 14.5706C17.8904 14.3451 18.0595 14.1762 17.8904 14.0637C17.7782 13.8954 17.6091 13.67 17.834 13.5011L18.0595 13.4446C18.1673 13.3863 18.2535 13.2943 18.3041 13.1826C18.3547 13.0708 18.3679 12.9458 18.3408 12.8256C18.3408 12.6009 18.2286 12.5444 18.0038 12.5444C17.7221 12.5444 17.6095 12.3755 17.6095 12.2065C17.6095 11.9811 17.8347 11.8693 18.0038 11.9254C18.0602 11.9254 18.1721 11.9254 18.2286 12.0375C18.2286 12.0944 18.2851 12.2065 18.3977 12.2065C18.6789 12.2065 18.9599 11.8693 18.9599 11.5875C18.9599 11.4753 18.8473 11.4185 18.6225 11.4753C18.2851 11.4753 17.8347 11.6439 17.3847 11.8129C17.1599 11.9254 17.1034 12.0944 17.2725 12.319L17.3289 12.488C17.3854 12.6002 17.3854 12.6562 17.3289 12.7127L17.1606 12.7691C17.048 12.8816 17.048 12.9945 17.1606 13.1635C17.1745 13.2034 17.1932 13.2408 17.2163 13.2757C17.3289 13.3882 17.3289 13.4439 17.2163 13.5571C17.1041 13.6693 17.1041 13.8383 17.1606 14.0072L17.2728 15.0199V16.1451C17.2728 16.3705 17.4419 16.5952 17.6667 16.8763L18.5106 17.8333C18.9294 18.2119 19.1906 18.7335 19.2419 19.2961C19.2419 19.5776 19.3541 19.6897 19.6358 19.8587C20.1988 20.0276 20.4236 20.3088 20.4793 20.7592C20.5919 21.5465 20.198 22.2777 19.5225 22.222C19.1854 22.222 18.9599 21.9405 18.9599 21.7719C18.9599 21.6029 19.0721 21.3783 19.2412 21.3215C19.2969 21.3105 19.3541 21.3105 19.4095 21.3215C19.4161 21.3585 19.4161 21.3966 19.4095 21.434L19.353 21.6587V21.9401C19.4653 21.9966 19.5786 22.0523 19.7469 21.9966C19.8591 21.9966 19.9717 21.8276 20.0843 21.6587C20.3656 21.096 20.1966 20.4213 19.5778 20.2523H18.9591C18.5653 20.5338 18.2278 20.6467 17.8897 20.9274C17.8703 20.9615 17.8596 21.0004 17.8596 21.0396C17.8596 21.0792 17.8703 21.118 17.8897 21.1521C17.8871 22.4309 17.9623 23.7086 18.1152 24.9775L18.2278 25.4276L18.3969 25.5958L18.5653 25.4276L18.8465 24.9775H18.9591L19.0156 25.0339V25.9344L19.184 26.103L19.2966 25.9344L19.3523 25.653C19.3754 25.6328 19.4022 25.617 19.4312 25.6079C19.4601 25.598 19.4909 25.5947 19.5214 25.5965V26.1591L19.6897 26.2713L19.8019 26.103L19.9703 25.8219L20.3642 25.4847C20.4195 25.4671 20.4782 25.4671 20.5332 25.4847C20.5391 25.5217 20.5391 25.5599 20.5332 25.5972L20.2519 26.272L20.1393 26.5535H20.3077C20.3077 26.5535 20.4203 26.5535 20.4203 26.441V26.3284L20.5886 26.1602C20.6458 26.2005 20.6858 26.261 20.7008 26.3284L20.8134 26.6099L20.9818 26.7221L21.0944 26.6656L21.2066 26.3281L21.3757 26.3845L21.4883 26.6099L22.1634 26.6664V24.6974L22.3325 22.8967L22.4451 21.2093H22.5573V21.1529L22.5599 21.1529ZM9.16948 13.6708C9.50689 13.4453 9.73171 13.2207 9.73171 12.9392V12.7706C9.658 12.7515 9.58061 12.7515 9.5069 12.7706C9.33782 12.9392 9.05652 13.2207 8.83134 13.3328L8.4943 13.3889C8.4943 13.3889 8.43745 13.3889 8.4943 13.3328L9.05653 12.8827C9.16875 12.7706 9.11301 12.6573 8.94394 12.6016C8.71838 12.6016 8.43745 12.6581 8.26875 12.8263C7.87486 13.1642 7.70652 13.7833 7.70652 14.2326L7.53745 14.2891C7.48133 14.008 7.42485 13.7265 7.53745 13.3889L7.70652 12.9953C7.70652 12.8827 7.70652 12.7699 7.59393 12.7138L7.48134 12.7706C7.31226 13.2771 7.03097 13.5018 6.58133 13.7833L6.07485 14.0644C5.90651 14.008 5.79355 13.8962 5.62521 13.6708L5.06225 12.8827C5.03585 12.8479 5.00174 12.8197 4.96287 12.7999C4.92399 12.7801 4.88071 12.7706 4.83744 12.7706H3.99355C3.84355 12.7402 3.70161 12.6797 3.57618 12.5928C3.45039 12.5056 3.34329 12.3938 3.26224 12.2644C3.09391 12.039 3.03743 12.039 2.86835 12.2644L2.30539 12.6581C2.27385 12.7185 2.23644 12.775 2.19317 12.827C2.02483 12.8835 1.96835 12.827 1.9115 12.7145C1.7428 12.2644 1.68668 11.8147 1.68668 11.3082V10.5773C1.56969 10.4652 1.43693 10.3703 1.29279 10.2962C0.842422 10.1273 0.505015 9.79007 0.167604 9.45251C0.102687 9.39533 0.0623455 9.31433 0.0553782 9.22746C0.0553782 9.22746 0.0553782 9.05886 0.223716 9.00205C0.449269 8.83346 0.786676 8.77664 1.06797 8.77664L1.96835 8.88917C2.19316 8.88917 2.24964 8.7202 2.19316 8.43908C2.13668 7.76396 2.3615 7.31314 2.75539 6.97594C3.03669 6.63838 2.98021 6.30118 2.92447 5.96325C2.92447 5.79502 2.86762 5.73857 2.69891 5.73857C2.39891 5.81371 2.2115 6.001 2.13668 6.30118C2.13668 6.52659 2.02409 6.75127 1.9115 6.97594L1.18056 7.76395C1.12445 7.87647 1.01223 7.87647 0.955378 7.76395C0.664178 7.57886 0.448531 7.29628 0.345105 6.96677C0.242051 6.63691 0.25892 6.28212 0.392418 5.96398C0.392418 5.7393 0.560756 5.5139 0.674084 5.40137V5.57034L0.561491 5.96398C0.393153 6.47088 0.393153 6.92023 0.730564 7.37031L0.843156 7.42676H1.01223L1.57483 6.86452C1.85649 6.58303 1.91224 6.30191 1.85649 5.96398C1.82348 5.83204 1.78608 5.69972 1.7439 5.57034V5.45819L1.57556 5.51463C1.35074 5.74004 1.29426 5.90827 1.18167 6.24584C1.16663 6.31437 1.12666 6.37412 1.06908 6.4148V6.18939C1.06908 5.85219 1.18167 5.57034 1.40649 5.34567C1.51908 5.17743 1.51908 5.12099 1.40649 5.06455C0.843527 4.95203 0.449636 4.78306 0.112593 4.33298C0.0513454 4.27177 0.0117382 4.19297 0 4.10757C0 3.99505 0 3.9386 0.169073 3.88216C0.562964 3.60068 1.0126 3.31956 1.4626 3.15059H1.80001C1.56786 2.48903 1.37972 1.81207 1.23778 1.12521L1.40649 0.562607H1.80038L2.36334 0.900534C2.53241 1.01306 2.58889 1.01306 2.70075 0.844094C2.86982 0.562607 3.15112 0.281487 3.43205 0.0568109L3.65687 0C3.76946 0 3.82594 0.0568109 3.93816 0.225411L4.3889 1.0695C4.55724 1.35062 4.72631 1.35062 4.95186 1.18165L5.79538 0.619415C6.0202 0.394375 6.07668 0.394375 6.35761 0.563338C6.58316 0.732302 6.8641 1.01342 6.97632 1.29491C6.97632 1.35135 7.53855 1.07023 7.59503 0.901265C7.59503 0.675858 7.70762 0.507625 7.7641 0.338662C7.93244 0.0571782 8.10151 0.000730909 8.2141 0.000730909C8.38318 0.000730909 8.60799 0.169698 8.77706 0.282218L9.28318 0.506895C9.45152 0.675858 9.508 0.675858 9.62059 0.450818C9.78893 0.225411 9.90189 0.169698 10.1828 0.169698C10.8576 0.169698 11.4206 0.338662 11.871 0.844825C11.871 0.956978 11.9832 0.956978 12.0958 0.844825C12.2649 0.675858 12.4332 0.619415 12.7145 0.619415H13.2775C13.4465 0.619415 13.503 0.619415 13.6713 0.450818C13.7839 0.225411 14.0088 0.000730909 14.2336 0.000730909C14.6275 0.000730909 15.1904 0.563338 15.4152 1.07023L15.303 1.12668C15.1831 1.00096 15.0518 0.887342 14.9091 0.788749C14.6964 0.653502 14.4705 0.539884 14.2336 0.451549C14.0088 0.339396 13.8962 0.451549 13.8962 0.733033L14.1217 1.6332C14.1782 1.91469 14.4591 2.13936 14.6839 2.25225V2.36477H14.1217C13.7843 2.42121 13.503 2.58945 13.1649 2.70197C13.0526 2.75841 13.0526 2.81412 13.1649 2.92737L13.7278 3.43317C14.2343 3.82754 14.7408 3.71465 15.416 3.48961L15.6415 3.43317C15.9228 3.37673 16.2038 3.43317 16.3728 3.65858L16.9915 4.22119C17.1606 4.39015 17.2164 4.55838 17.1041 4.78379C16.9061 5.1635 16.6996 5.53808 16.4851 5.909L16.3163 6.0776C16.2602 6.0776 16.2038 5.909 16.2602 5.74077L16.3728 5.62825C16.5804 5.32587 16.7161 4.97877 16.7667 4.61556C16.7667 4.33407 16.6541 4.16547 16.3728 4.27836L16.0912 4.3348C15.9789 4.39125 15.9228 4.3348 15.9228 4.22265L15.8106 3.99724C15.7541 3.82901 15.6423 3.7722 15.4732 3.88472C15.2436 4.02473 15.0503 4.21789 14.911 4.44733C14.6986 4.8428 14.6198 5.29692 14.6861 5.74113L14.7426 5.85366C14.7925 5.8313 14.8321 5.79135 14.8552 5.74113C14.9674 5.57254 14.9674 5.34713 15.0239 5.1789L15.0808 4.72845H15.2491C15.4174 4.72845 15.4739 4.78526 15.4739 4.89741C15.1923 5.23461 15.08 5.68543 14.9117 6.13478L14.6865 6.2473L14.4617 6.13478L14.1243 5.29105C13.9556 4.39125 13.8987 4.33481 13.843 4.27836C13.4722 3.68973 12.9954 3.17441 12.4365 2.75915L12.3239 2.64663L12.4922 2.59018L12.9987 2.36551C13.2243 2.30869 13.3926 2.1401 13.5048 1.91505L13.6732 1.57822C13.7858 1.40926 13.7858 1.29674 13.6732 1.18385C13.3919 0.902367 13.1109 0.846654 12.7732 0.902367C12.4358 0.959178 12.2109 1.23956 12.0976 1.57749V1.91469C12.0976 2.08329 12.0976 2.1401 12.2667 2.02684L12.9422 1.57676L13.0545 1.52031C12.9422 1.80143 12.7732 2.02611 12.4915 2.13936C12.3272 2.25812 12.1581 2.37137 11.9854 2.47693C11.8728 2.533 11.8163 2.47693 11.7598 2.36477V1.74572C11.7598 1.18312 11.4224 0.733033 10.9721 0.564069L10.5221 0.339393C10.4637 0.385207 10.4175 0.445684 10.3878 0.514589C10.3585 0.583127 10.3468 0.658629 10.353 0.733033C10.353 1.0706 10.353 1.29564 10.4656 1.68964L10.5221 2.02684C10.5782 2.19581 10.8037 2.25225 10.9721 2.25225C11.0843 2.25225 11.1969 2.08329 11.0285 1.80217L10.8037 1.40779L10.7469 1.23883V1.18238L10.8595 1.23883C11.1455 1.56503 11.3568 1.94877 11.4782 2.36477C11.5908 2.47692 11.4782 2.533 11.366 2.58945C10.9721 2.58945 10.5782 2.58945 10.2408 2.70197C9.67854 2.81412 9.45299 3.03953 9.22817 3.43317L9.11558 3.82754L9.90336 3.7711C10.181 3.72712 10.448 3.63182 10.6911 3.48961L11.2534 2.92737H11.4782C12.2095 3.26421 12.716 3.71502 13.0537 4.44659L13.1663 4.61483V4.72735H13.1099L12.716 4.61483L12.6034 4.44659L12.4911 4.10867C12.416 4.03389 12.3221 3.99651 12.2095 3.99651L11.9847 4.10867C11.8721 4.16548 11.8156 4.16548 11.7591 4.10867L11.6465 3.54643C11.6465 3.37746 11.5343 3.37746 11.3652 3.43391C11.0212 3.59957 10.7432 3.87739 10.5774 4.22192C10.4091 4.55912 10.3526 4.78452 10.5213 5.62825C10.5213 5.79721 10.6897 6.02189 10.8587 6.07833L12.3221 6.52842H12.3778V6.64094L11.8156 7.03531C11.7034 7.03531 11.6285 6.99793 11.5908 6.92279C11.4782 6.67319 11.2776 6.47271 11.0278 6.36019C10.9152 6.36019 10.8404 6.39794 10.803 6.47271L10.5774 7.03531C10.5774 7.09176 10.5213 7.14747 10.4091 7.03531C10.0152 6.75383 9.56521 6.69738 9.05836 6.8099C8.77707 6.8099 8.66447 6.86635 8.72095 7.14747C8.83355 7.54111 9.05836 7.82259 9.39651 8.04727L10.0152 8.3852C10.0816 8.36614 10.1406 8.32655 10.1843 8.27267C10.2965 8.16015 10.24 8.04726 10.1843 7.93474L9.28392 7.3725L9.45225 7.20427H9.62133C10.0152 7.42895 10.2958 7.76651 10.6339 7.99155C10.7465 8.16015 10.8587 8.16015 10.9152 7.93474L11.0843 7.31569V7.25925H11.1969L11.2534 7.82185L11.1408 8.32801C11.1408 8.49698 10.9721 8.55342 10.8595 8.55342C10.4656 8.49698 10.1282 8.60913 9.79077 8.72166C9.62389 8.75428 9.45409 8.77297 9.28465 8.7781L8.94724 8.72166L8.89076 8.60913C8.94651 8.6007 9.00372 8.6007 9.0591 8.60913C9.22817 8.60913 9.45299 8.60913 9.62206 8.49698C9.55751 8.42698 9.48123 8.3698 9.39651 8.32802C9.0591 8.04653 8.66521 8.32802 8.3278 8.49698C8.2152 8.57175 8.1778 8.68427 8.2152 8.83381C8.3278 9.1153 8.55261 9.17174 8.77816 9.17174H9.50946L10.0724 8.89062H10.2972L10.2408 9.11603L9.73428 9.39715L9.62205 9.45359L9.45298 9.62256C9.50946 9.679 9.5652 9.79152 9.6778 9.79152L10.2965 9.95976C10.6904 10.0162 10.8587 9.95976 10.8587 9.56612L11.0843 9.00351C11.1408 8.89099 11.2526 8.89099 11.3095 9.00351L12.0404 10.2973C12.0404 10.4098 12.0404 10.4663 11.9282 10.4663C11.3828 10.404 10.8386 10.3288 10.2965 10.2409C10.1282 10.2409 9.9591 10.0719 9.73355 10.0155C9.50873 9.90332 9.17132 9.79079 8.89003 9.79079C8.60873 9.79079 8.43965 9.95903 8.55261 10.2409L8.94651 11.3661C9.0591 11.5915 9.3404 11.7037 9.62206 11.7605C9.73428 11.7605 9.6778 11.6479 9.62206 11.5915L9.17132 10.6345V10.5224H9.28392C9.50874 10.9724 9.7904 11.3096 10.0152 11.6472V11.9287L9.7904 11.9844C9.22817 11.9287 8.66521 11.7597 8.15872 11.5343L8.0465 11.3089H8.38354C8.49614 11.3089 8.60873 11.3089 8.55188 11.1964C8.4855 11.0927 8.38684 11.0139 8.27058 10.971C8.00542 10.8207 7.72229 10.7075 7.42669 10.6334C7.25799 10.6334 7.14539 10.6899 7.20114 10.8588C7.20114 11.0274 7.31373 11.1964 7.42669 11.4211C7.44393 11.4764 7.44393 11.5354 7.42669 11.59L6.80798 11.4779C6.35761 11.2528 6.35761 11.1407 6.35761 10.6338V10.2401C6.41409 10.0715 6.47021 10.0147 6.58317 10.0715L7.87669 10.4656L8.27059 10.6906C8.38318 10.6906 8.43892 10.6906 8.43892 10.5781C8.43562 10.5066 8.41325 10.4373 8.37328 10.3776C8.33367 10.3186 8.27829 10.2706 8.21411 10.2401L6.80725 9.6779C6.69503 9.62109 6.63855 9.56538 6.69503 9.45249C6.91984 9.1153 6.97632 8.77737 6.91984 8.38373L6.97632 8.27157L7.1454 8.38373C7.16007 8.43907 7.16007 8.49735 7.1454 8.55269C7.20114 8.88989 7.42669 9.11529 7.70763 9.33997C7.97022 9.64015 8.308 9.73398 8.72022 9.62109L8.88929 9.50894L8.72022 9.33997L8.32633 9.22745C7.93244 9.05885 7.82022 8.77737 7.93244 8.32728L8.32633 7.20207L8.38318 6.63947C8.38318 6.47124 8.4954 6.47124 8.55152 6.47124L9.45152 6.41479C9.67634 6.41479 9.90189 6.13367 10.0137 5.96471L10.2954 5.51463C10.2202 5.43179 10.1223 5.37241 10.0137 5.34566L9.67634 5.40211C9.78893 5.17743 9.84541 5.00846 9.84541 4.78305L9.78893 4.33297C9.73245 4.22045 9.62059 4.16401 9.50763 4.27652C9.28245 4.44512 9.11374 4.67017 9.0569 4.95128C8.99125 5.24963 8.93477 5.55017 8.88856 5.85182C8.94907 5.82067 9.00592 5.78328 9.0569 5.7393L9.33856 5.62678H9.56412C9.50764 5.7393 9.39504 5.7393 9.33856 5.79574C9.2025 5.91009 9.05103 6.00466 8.88856 6.07723C8.71986 6.13367 8.66374 6.07723 8.71986 5.90826L8.77633 5.45818L8.71986 4.78305L8.38244 3.88288C8.31936 3.74544 8.24344 3.61349 8.15689 3.48924C8.10078 3.37672 7.98855 3.43243 7.81948 3.65784C7.53781 3.93932 7.42559 4.22044 7.313 4.78305V4.89557L7.08818 5.06453L6.97559 5.00772L7.14466 4.38941C7.14466 4.10829 7.03243 3.93932 6.86336 3.8268L6.41299 4.164C6.34001 4.26113 6.3004 4.37951 6.3004 4.50193C6.3004 4.62398 6.34 4.74163 6.41299 4.83912C6.63781 5.17669 6.63781 5.57033 6.52521 6.02041L6.29967 5.12097L6.01837 4.55837C5.90577 4.44585 5.85003 4.16473 5.90578 3.99577C6.01837 3.82753 6.41226 3.77109 6.46873 3.54568C6.63707 3.37672 6.58133 3.2642 6.75003 3.03952C6.86263 2.92736 7.08744 2.64515 7.31299 2.7584C7.76373 3.03952 8.32596 3.09596 8.88855 2.98381C9.11374 2.98381 9.17022 2.98381 9.28244 2.70232C9.28244 2.53372 9.33856 2.70232 9.56411 2.59017C9.90152 2.47765 10.0702 2.19653 10.0702 1.80289V1.24028L9.90189 0.677673H9.73318L9.2267 1.46569L9.05763 1.85933C9.05763 1.91577 8.9454 1.97185 8.88929 1.85933C8.7888 1.75267 8.67511 1.65811 8.55188 1.57821C8.4954 1.46569 8.4954 1.18384 8.4954 0.903084C8.60799 0.903084 8.66447 1.0156 8.72022 1.12849C8.72022 1.29672 8.77706 1.46569 8.94577 1.52213C9.05836 1.63465 9.22743 1.29672 9.22743 1.01597C9.2201 0.956229 9.20103 0.899051 9.17095 0.847375C9.00262 0.565891 8.60872 0.284771 8.32706 0.284771C8.04576 0.284771 7.82058 0.678407 7.93317 1.01597L8.04576 1.24101C7.37021 1.57858 7.20114 1.80362 6.92057 2.14118C6.92057 2.19763 6.86446 2.31015 6.92057 2.36659C7.0328 2.59127 6.92057 2.70379 6.69576 2.87275C6.56996 2.94092 6.43793 2.99737 6.30187 3.04172H6.18927C6.17607 3.00543 6.17607 2.96548 6.18927 2.9292L6.7515 1.80399C6.91984 1.40998 6.52668 1.01597 6.18927 0.903818C6.0202 0.791298 5.79538 0.847375 5.62704 1.01597C5.28963 1.57858 5.28963 2.19763 5.68279 2.81631L5.73964 2.87275C5.79612 2.98491 5.79612 3.04172 5.68279 3.04172L4.78279 3.09816C4.60381 3.10842 4.43034 3.15973 4.27447 3.24807C4.1186 3.3353 3.98437 3.45772 3.88241 3.60469C3.82667 3.71721 3.71408 3.71721 3.6576 3.60469C3.37593 3.49254 3.20759 3.54824 2.98204 3.66113L2.13852 3.99833L1.85722 4.05477L1.74463 3.99833C1.74463 3.99833 1.74463 3.88618 1.85722 3.88618L2.36334 3.77366L2.53241 3.71721L2.58889 3.49181L2.41982 3.37928C2.1939 3.37195 1.96688 3.39101 1.74463 3.43573C1.23815 3.43573 0.900738 3.66114 0.56296 3.99833C0.394622 4.1673 0.394622 4.33626 0.56296 4.44842C0.956851 4.72991 1.35074 5.01103 1.9137 4.89887L2.30759 4.56094L2.70148 4.1673C2.87056 3.99833 3.2076 3.71721 3.43278 3.99833C3.76983 4.39271 3.82667 4.84206 4.38927 4.72991C4.61445 4.72991 4.67093 4.67346 4.78352 4.44842V4.22301C4.78352 4.05441 4.78352 3.9976 4.55834 4.05441L4.27704 4.16657H4.1087L4.16445 3.94116L4.50186 3.77293C4.91225 3.66773 5.32448 3.57391 5.73964 3.49181C5.77705 3.48521 5.81446 3.48521 5.85187 3.49181V3.60396C5.68279 3.94116 5.45797 4.05441 5.17668 4.16656L5.06409 4.39197C4.83854 4.95458 4.95186 5.51718 5.34575 5.96727L5.79539 6.36164C6.1328 6.5306 6.18928 6.81172 6.30187 7.09321L6.52742 7.65544C6.30187 7.82441 6.07669 7.99264 5.96519 8.21805C5.90835 8.33057 5.8526 8.27449 5.79612 8.21805L5.68353 7.82441C5.51519 7.48685 5.28964 7.26181 4.89575 7.26181L4.44611 7.14965C4.27704 7.14965 4.16445 7.2061 4.1087 7.43077C3.99611 7.88086 3.99611 8.33131 4.44611 8.78066L4.78352 9.00607C4.70651 9.03979 4.63132 9.07717 4.55834 9.11859C4.36176 9.1677 4.17252 9.24321 3.99538 9.34327C3.8208 9.44369 3.66824 9.57711 3.54574 9.73764C3.54574 9.8498 3.77056 9.96232 3.93963 10.0188C4.50259 10.2442 4.95223 10.2442 5.45871 10.0188C5.74001 9.96232 5.74001 10.0188 5.79612 10.2442L5.90835 10.8625C5.9652 11.0315 5.90835 11.0879 5.73964 11.0315C4.95187 10.806 4.05149 10.4689 3.37667 10.0188C3.10711 9.89341 2.82361 9.79922 2.53315 9.73764C2.42056 9.79409 2.30833 9.90661 2.25148 9.8498C2.02667 9.8498 1.5763 9.6812 1.40796 9.56868C1.35808 9.54632 1.31774 9.50637 1.29537 9.45616C1.33241 9.44699 1.37128 9.44699 1.40796 9.45616L2.42056 9.51297L2.58963 9.45616C2.56396 9.40888 2.52435 9.36966 2.47704 9.344C1.91481 8.89355 1.29537 9.00681 0.676658 9.11896C0.45184 9.11896 0.39536 9.23148 0.564065 9.40045C0.901476 9.85053 1.29537 10.1885 1.85833 10.2442H2.98352C3.60223 10.6378 4.27778 11.0315 5.00908 11.2569V11.3694C4.72741 11.3694 4.44612 11.3694 4.22093 11.4815L3.49 11.5941C3.26444 11.5941 3.20833 11.8195 3.32092 12.0441C3.54648 12.3256 3.88388 12.4942 4.22093 12.6067C4.50259 12.6625 4.78352 12.6067 5.00907 12.5503C5.34612 12.3813 5.51519 12.1559 5.79685 11.9877C5.96556 11.8752 6.24722 11.9877 6.41556 12.0441L7.20333 12.2695C7.59723 12.3821 8.04759 12.3821 8.4976 12.4385H10.298C10.2052 12.6566 10.1296 12.8827 10.0732 13.1136C10.0163 13.2258 10.0732 13.2822 10.1854 13.2822C10.3537 13.2822 10.5793 13.1136 10.6919 12.9447V12.4942L10.8041 12.3256L11.0858 12.3821L10.9167 12.8322L10.8041 13.0576L11.0858 13.114C11.4796 13.114 11.5354 13.0576 11.5354 12.6639C11.5255 12.5503 11.5064 12.437 11.4789 12.3267C11.4789 12.0456 11.4789 11.8209 11.7606 11.7077C11.9861 11.5955 12.2667 11.5955 12.4915 11.6512C13.2793 11.7077 14.1232 12.2138 14.6293 12.6082C14.9667 12.8329 14.6293 13.1708 14.6293 13.6766V14.4082C14.6293 14.6336 14.7419 14.8018 14.7976 14.8583L15.698 15.4209C15.9797 15.6463 16.0919 15.7584 16.4858 15.871H16.7106C16.7326 15.7592 16.7326 15.6448 16.7106 15.533L16.0354 15.2519L15.8671 15.1394L16.0919 15.0272L16.5423 14.9147C16.5837 14.9048 16.6218 14.8858 16.6549 14.8583L16.5423 14.7458L15.9797 14.5775C15.9228 14.5775 15.8671 14.5775 15.8671 14.4654C15.9162 14.4181 15.9731 14.38 16.0354 14.3528H16.5419C16.5918 14.3305 16.631 14.2905 16.6541 14.2407L16.5419 14.1282L15.9789 13.8471L15.8663 13.6781H16.4851L16.5976 13.5656C16.5859 13.5249 16.5668 13.4868 16.5412 13.4534L16.0908 13.1719C15.9782 13.1719 15.9225 13.0594 15.9225 12.9465H16.1473L16.5412 13.059H16.7095C16.7168 13.0279 16.7154 12.9964 16.7055 12.967C16.6956 12.9374 16.6772 12.9102 16.653 12.8901L16.4278 12.7776L16.0908 12.4404C16.0339 12.4404 16.0908 12.3282 16.0908 12.3282H16.1473L16.5976 12.4404C16.653 12.4525 16.7106 12.4525 16.766 12.4404L16.7095 12.2718L16.3156 11.9903V11.7656L16.4847 11.822H16.7095L16.8786 11.8785C16.8877 11.8418 16.8877 11.803 16.8786 11.7663C16.8481 11.6512 16.81 11.5387 16.766 11.4284V11.3163H16.8786L17.3847 11.4848H17.553L17.4973 11.3163L17.3847 11.0912V10.9791H17.553L18.116 11.2602H18.2843L18.116 10.9226L18.1721 10.8658L18.566 10.9783L18.9599 11.0348C18.9965 11.0428 19.0347 11.0428 19.0721 11.0348L18.9599 10.6972C19.0142 10.68 19.0736 10.68 19.1282 10.6972C19.2969 10.6972 19.4095 10.8658 19.6343 10.8658L20.3091 10.8094C21.2095 10.6404 21.8847 10.5847 22.7282 10.3593C23.0939 10.2332 23.4518 10.0825 23.7977 9.90918H23.9099C24.1354 10.5282 24.6412 10.7529 25.1477 10.8086H25.6542C25.7664 10.8086 25.8225 10.8086 25.7664 10.64C25.6542 10.0774 25.3725 9.68378 24.9786 9.29013L24.6412 9.1219C24.529 8.95293 24.529 8.78397 24.6412 8.67145L25.598 8.10921C25.7646 7.99999 25.8992 7.84898 25.9879 7.67122C26.0774 7.49346 26.117 7.29554 26.1045 7.09689C26.1045 6.98473 26.1045 6.87148 25.9362 6.81577C25.8716 6.83996 25.8144 6.87808 25.7671 6.92829L25.5423 7.43408L25.4297 7.5466L25.2049 7.65876V7.37764C25.2049 7.26512 25.2049 7.2094 25.3175 7.09652L25.8236 6.53391V6.36495H25.7114C25.481 6.39244 25.2647 6.4903 25.0923 6.64607L24.6984 7.20867L24.1362 8.50285L24.024 8.89649C23.9671 9.1219 23.9671 9.23405 24.1362 9.34657L25.1491 9.90917L25.2614 10.0774H25.093C24.9364 10.0833 24.7806 10.0558 24.6353 9.99787C24.4901 9.93996 24.3584 9.852 24.2488 9.74021L23.9114 9.5148L22.8988 9.79592C22.6739 9.79592 22.5613 9.90844 22.4484 10.0774C22.4484 10.1896 22.2801 10.2464 22.111 10.1896L21.4362 9.96415C21.1549 9.90844 20.8175 9.96415 20.4793 10.021H20.3102C20.198 10.0774 20.1419 10.021 20.198 9.90844L20.3102 9.34584V9.12116C20.198 9.12116 20.0854 9.12116 20.0289 9.23331L19.7476 9.79592C19.6725 9.87105 19.5786 9.88975 19.466 9.85273C19.2437 9.74791 19.0361 9.61596 18.8473 9.45836L18.4534 8.83931C18.4534 8.76417 18.4908 8.72679 18.566 8.72679L19.1282 9.17687L19.2969 9.51407H19.5221V9.23295C19.6343 9.00754 19.5786 8.67034 19.4095 8.50138L18.6217 7.93877C18.1713 7.65765 18.1152 7.7141 18.003 7.93877C17.8548 8.19571 17.7775 8.48635 17.7782 8.7825C17.8904 9.45763 18.0595 9.73948 18.903 10.1331C18.8806 10.183 18.8407 10.2233 18.7908 10.2456C18.7908 10.3021 18.7343 10.3578 18.6224 10.3578L17.6095 10.3013C17.4973 10.3013 17.4411 10.3013 17.4411 10.1892C17.1598 9.1765 17.3289 8.10773 17.835 7.15076L18.0041 6.98216C18.2069 6.86231 18.4127 6.74942 18.6232 6.64423C18.7354 6.64423 18.7915 6.64423 18.848 6.75675L19.0171 7.76944C19.1854 7.76944 19.2984 7.71263 19.3541 7.60048C19.5797 7.20684 19.6915 6.69994 19.4667 6.25059C19.4667 6.19414 19.4667 6.08163 19.5793 6.08163L21.2671 5.35042C21.5487 5.35042 21.9984 5.35042 22.5613 5.46257C22.6739 5.46257 22.8426 5.68798 23.1243 5.8005C22.7869 5.91265 22.4488 6.19414 22.1675 6.47526C22.0549 6.53171 21.9991 6.64349 22.0549 6.8689L22.5613 6.75675C22.8426 6.64423 22.9552 6.64423 23.1801 6.64423H23.3484C23.3484 6.70544 23.3286 6.76444 23.2919 6.81319C23.1793 6.86964 23.0671 6.81319 23.0106 6.92535C22.898 6.92535 22.8423 7.03787 22.898 7.15075L23.1228 7.31899C23.4045 7.31899 23.6851 7.26254 23.9106 7.15075C24.0232 7.0386 24.4736 6.41955 24.248 6.36347C24.0797 6.36347 23.7416 6.36347 23.6293 6.25132C23.6436 6.21247 23.6653 6.17692 23.695 6.14796C23.7239 6.11901 23.7595 6.09665 23.7984 6.08235L24.3606 6.1388H25.4858C25.598 6.02664 25.6545 5.96983 25.598 5.91339C25.5008 5.70191 25.36 5.51241 25.1858 5.35738C25.0116 5.20234 24.807 5.08542 24.5847 5.01322H21.9973L21.8282 4.9007L21.9404 4.84425L22.5034 4.50706C22.7282 4.33809 22.8973 4.11269 23.0099 3.77549C23.0242 3.72051 23.0242 3.66187 23.0099 3.60689C22.8415 2.98784 22.4477 2.48168 21.7721 2.48168L21.4351 2.36916C21.3225 2.36916 21.266 2.42597 21.266 2.53739V3.1C21.266 3.21252 21.266 3.26823 21.4351 3.26823L22.3912 3.54972C22.5599 3.66187 22.6167 3.77512 22.3912 3.94336L21.8289 4.28092C21.8289 4.33736 21.7721 4.28092 21.7721 4.28092L21.7164 3.83083C21.7057 3.78942 21.6874 3.7513 21.6599 3.71831C21.5961 3.72564 21.5363 3.75056 21.4868 3.79015C21.4369 3.8301 21.3995 3.88324 21.3789 3.94335C21.3078 4.10682 21.2513 4.27652 21.2099 4.44988C21.2099 4.67456 21.0415 4.78708 20.816 4.89997C20.7595 4.89997 20.6469 4.89997 20.6469 4.78781L20.7595 4.45062C20.9113 4.09583 20.9693 3.70879 20.9278 3.32467V2.64991C20.908 2.5975 20.9088 2.54032 20.9297 2.48755C20.9509 2.4355 20.9902 2.39299 21.0408 2.36879L21.9977 2.03086C22.0545 2.03086 22.166 2.03086 22.2793 2.14339L22.9545 2.87459C23.1228 3.1 23.1793 3.1 23.2919 2.87459C23.461 2.70563 23.5732 2.48095 23.8549 2.3688C23.9106 2.3688 23.9106 2.25628 23.7984 2.19983L23.0671 1.97442L22.8988 1.91798L22.7862 1.80546L22.8988 1.69294L23.9114 1.29856L24.1369 1.24212C24.2495 1.18568 24.3052 1.07389 24.3052 0.961004L24.1927 0.56736C24.1927 0.399127 24.0804 0.342684 23.9671 0.285873C23.6858 0.285873 23.4045 0.285873 23.1793 0.398396C22.9717 0.498455 22.7818 0.631135 22.6171 0.792036C22.5878 0.843349 22.572 0.901989 22.572 0.961004C22.572 1.02001 22.587 1.07865 22.6171 1.12997C22.6549 1.13509 22.6923 1.13509 22.7297 1.12997C22.9479 1.06472 23.1566 0.970164 23.3484 0.84848L23.5739 0.623073L23.6865 0.792036C23.0821 1.10431 22.4627 1.38616 21.8301 1.63576L20.7049 1.97296H20.5926V1.8608C20.8123 1.55696 21.0379 1.25678 21.2678 0.961004V1.18568L21.0995 1.52361V1.63576H21.2121C21.5491 1.57932 21.8873 1.18567 21.8873 0.792036C21.8873 0.679516 21.8308 0.623073 21.6624 0.623073C21.4376 0.623073 21.2121 0.623073 20.9869 0.735593C20.593 0.847745 20.4243 1.07316 20.256 1.46716C20.2057 1.63246 20.1683 1.80216 20.1434 1.97296C20.1434 2.14192 19.9185 2.19836 19.7495 2.31089C19.5247 2.47985 19.3556 2.47985 19.1308 2.47985C18.9393 2.52163 18.7512 2.57771 18.5685 2.64808V2.47985L18.906 1.8608C19.1308 1.57932 19.0743 1.41035 18.7369 1.2982C18.4941 1.2062 18.2278 1.2007 17.9814 1.2828C17.7353 1.36527 17.5255 1.52947 17.3861 1.74828L16.9923 2.64808C16.9358 2.81668 16.9923 2.9292 17.1613 2.9292C17.4426 2.98565 17.8358 2.9292 18.0613 2.81668V3.32284L17.8358 3.66077C17.7236 3.82937 17.611 3.88545 17.4419 3.82937C17.1323 3.67836 16.8316 3.5094 16.5419 3.32284C16.2045 3.15461 15.8663 2.98564 15.5289 2.98564C15.4732 2.99481 15.416 2.99481 15.3606 2.98564C15.2484 2.98564 15.2484 2.9292 15.3606 2.87349V2.53556L14.9667 1.74828L14.7976 1.35391L15.2484 1.52287L15.3606 2.08548L15.5858 2.42304C15.6422 2.47985 15.7541 2.53556 15.8106 2.47985C15.8106 2.47985 15.9228 2.42304 15.9228 2.31089C15.9228 2.14192 15.6973 1.74828 16.0354 1.01671C16.2045 0.679145 16.7106 0.0604655 16.9923 0.0604655C17.1613 0.0604655 17.3297 0.117276 17.3861 0.398393L17.5545 0.848476C17.5545 1.01744 17.6667 1.01744 17.78 1.01744C18.0613 1.01744 18.5113 0.792033 18.8487 0.792033C19.0736 0.735589 19.2426 1.2982 19.3549 1.46716C19.5239 1.74828 19.5804 2.0294 19.8052 1.69257C20.0587 1.31065 20.3209 0.935342 20.593 0.567356C21.0437 0.34268 21.606 0.285869 22.0563 0.34268C22.1689 0.34268 22.2247 0.399124 22.1689 0.567356V0.961H22.3376C22.3376 0.848476 22.506 0.792033 22.5628 0.735589L22.7312 0.510913C23.0125 0.229429 23.2938 0.0604618 23.856 0.0604618C24.1376 0.0604618 24.3625 0.117273 24.5873 0.229425C24.7564 0.229425 24.8121 0.285865 24.7564 0.454833L24.5873 1.01744C24.5308 1.24211 24.5873 1.29856 24.8121 1.41108L25.2628 1.74901L25.4877 1.69256C25.7132 1.18567 26.1628 0.735585 26.5567 0.510909C26.7251 0.398389 26.7819 0.398389 26.8384 0.567353L27.0632 1.35463V1.74901L27.288 1.46752L27.6819 1.07388C27.9287 0.784331 28.2654 0.58568 28.6388 0.511276C29.0217 0.490385 29.4042 0.548294 29.764 0.68024C29.933 0.68024 29.764 0.905651 29.6514 1.07461C29.6514 1.18713 29.5391 1.24285 29.4827 1.29929C29.4827 1.41181 29.4258 1.41181 29.3143 1.29929L29.0327 0.905651C28.8636 0.736684 28.5262 0.849204 28.3014 0.962091C27.8334 1.23112 27.4446 1.61889 27.1762 2.08731C27.0639 2.36879 26.501 3.04355 26.2762 3.21251H26.1071V3.1C26.5186 2.48168 26.7522 1.76147 26.7823 1.0189C26.6701 1.0189 26.5575 1.0189 26.4452 1.13105C26.2864 1.23221 26.1526 1.36636 26.0514 1.5247C25.7249 2.07228 25.5317 2.68949 25.4891 3.32467C25.4891 3.43719 25.4891 3.60615 25.3204 3.6626L24.7578 3.94372H24.6452C24.7578 3.43792 24.6452 3.09999 24.3639 2.64991C24.3639 2.53739 24.2513 2.53739 24.1387 2.53739L23.9132 2.70635C23.4636 3.10073 23.2387 3.66333 23.2387 4.39453C23.2387 4.45135 23.351 4.45135 23.4636 4.39453C23.5325 4.33039 23.5897 4.25416 23.6319 4.16912L24.0258 3.43792L24.1949 3.3254C24.2117 3.38074 24.2117 3.43975 24.1949 3.49436L24.1384 3.94445C24.0815 4.11341 23.8567 4.39453 23.6319 4.50705L23.6884 4.73173C24.1949 4.73173 24.4762 4.73173 24.8701 4.45061C25.3204 4.2252 25.6014 4.05624 25.8269 4.05624L26.6708 4.33736L26.5025 4.44988L25.996 4.84352C25.7704 5.01248 25.7147 5.06893 25.7147 5.46257L25.8269 5.96873L25.9395 6.08088L26.0517 6.02444L26.6147 5.29324L26.7273 5.23643V5.34895C26.7273 5.63007 26.5589 5.85548 26.3899 6.0237L26.2773 6.19267C26.1086 6.36163 26.1086 6.41808 26.2773 6.64275C26.4456 6.86816 26.4456 7.14965 26.3899 7.43077C26.3437 7.69246 26.3062 7.95452 26.2773 8.21878L25.715 8.44419L25.2647 8.78138C25.0399 8.95035 25.0399 9.06251 25.0399 9.11895L25.1521 9.23147L25.3776 9.34399C25.6028 9.40043 26.0525 9.34399 26.1658 9.06251L26.2223 8.78138L26.3906 8.83783C26.5028 9.11895 26.5597 9.34399 26.7845 9.51296L26.6161 9.73837C26.5036 9.96304 26.4471 10.0752 26.2787 10.0752H26.1097C25.9974 10.0752 25.8848 10.0752 25.8848 10.2442V10.7503C25.8848 10.9193 25.8284 11.0879 25.66 11.0314C25.3226 11.0314 25.0978 10.7503 24.7032 10.806C24.4215 10.806 24.2528 10.7496 24.0845 10.6371L23.6906 10.4124L22.228 10.6939L20.6524 10.975L19.4707 11.2004C19.3582 11.2004 19.3582 11.3129 19.3024 11.4251C19.3024 11.763 19.1333 12.0441 19.0769 12.3821L19.1891 12.551L19.3017 12.4385L19.5265 12.1006C19.6391 11.9323 20.033 12.1006 20.0887 12.326C20.1452 12.4385 19.9765 12.4949 19.9765 12.6632C19.9765 12.7757 20.202 12.8886 20.202 13.0576L20.0895 13.339C20.6517 13.6759 20.7646 13.9581 20.7646 14.4639C20.7646 14.5764 20.7646 14.6329 20.8772 14.6893L21.1028 14.9708C21.3276 15.2519 21.5524 15.702 21.7215 15.7584H22.228V15.8709C22.228 15.9835 22.0596 16.1521 21.8906 16.1521C21.4967 16.321 21.3283 15.702 21.1028 15.4209C21.0056 15.26 20.8923 15.1093 20.7654 14.9708C20.5963 15.1394 20.3715 15.8709 20.3715 16.2646L20.5405 16.7147L20.9344 17.5588C21.1035 17.7842 21.3283 17.8399 21.5531 17.8963C21.778 18.0088 21.947 18.0088 22.1154 17.9528H22.3409V17.5027L22.5093 16.1528L22.5661 15.2534C22.5661 15.0844 22.7344 14.8029 22.96 14.6347C23.1848 14.4661 23.297 14.2407 23.2413 13.9599C23.2519 13.8573 23.2912 13.7602 23.3539 13.6788C23.3539 13.5098 23.2413 13.5098 23.0722 13.5098C22.96 13.5098 22.9039 13.3973 22.96 13.2283L23.5222 12.4971C23.611 12.374 23.6865 12.2421 23.747 12.1028C23.747 11.8781 23.747 11.5402 23.9154 11.5402H24.7032C24.928 11.5402 25.3219 11.7656 25.4345 11.8781V12.0463L25.8284 12.3839C25.9974 12.5529 26.1658 13.0022 25.8284 13.7902C25.9974 13.9027 25.9974 14.0153 25.9974 14.1839C25.9974 14.2965 26.0535 14.3716 26.1658 14.4093C26.3341 14.4661 26.4471 14.5782 26.5597 14.9719C26.6719 15.2534 27.0658 16.0971 27.2906 18.3471C27.2348 18.9655 27.1223 19.4724 26.9535 20.035C27.1223 21.1034 27.2906 22.3415 27.4039 24.1414L27.5723 27.292C27.8536 27.292 27.9661 27.4045 28.0226 27.123L28.0791 26.8976C28.1073 26.8518 28.1455 26.8137 28.1917 26.7855C28.239 26.8115 28.2786 26.8504 28.3039 26.8976L28.4723 27.4602L28.6413 27.7974L28.7539 27.9096H28.8662C28.8783 27.8165 28.8783 27.7219 28.8662 27.6285L28.923 27.1784C28.923 27.1219 28.923 27.0659 29.0352 27.0094L29.1478 27.1219L29.4291 27.6842C29.4291 27.7967 29.4291 27.8532 29.5417 27.9096H29.6543V27.0659L29.5417 26.6722L29.5982 26.5033C29.6389 26.5146 29.677 26.5344 29.7108 26.5601L30.555 27.6849L30.6108 27.7974H30.7799C30.8004 27.7744 30.8162 27.7476 30.8253 27.7186C30.8352 27.6897 30.8385 27.6589 30.836 27.6285L30.7791 27.3474V27.1784L31.0043 27.2905L31.2856 27.6277L31.4547 27.9092L31.623 28.0214C31.6381 27.9858 31.6465 27.9477 31.6465 27.9092C31.6465 27.8704 31.6388 27.8323 31.623 27.7967L31.5665 27.6277C31.6788 27.6277 31.7914 27.6277 31.8478 27.7403L32.0169 27.9657C32.1295 28.1346 32.2982 28.3029 32.6921 28.3593V28.4158L32.3547 28.5847H30.9482C30.5767 28.5349 30.1993 28.6144 29.8799 28.8094C29.6547 28.9219 29.4291 28.9219 29.1486 28.9219H27.6295C26.7291 28.8658 26.3917 28.9784 25.4917 29.0909H24.8161C24.4222 29.0909 23.6345 28.9219 23.6345 28.6972L23.7471 28.2468C23.7471 28.172 23.6909 28.1159 23.5787 28.0786C23.4845 28.0749 23.3913 28.0749 23.2971 28.0786C22.8474 28.0221 22.3409 28.0786 21.8906 28.1354C21.6093 28.1354 21.3283 28.2475 21.1028 28.3036C20.4276 28.36 20.0902 28.3036 19.752 28.0221C19.5272 27.7967 19.4146 27.741 19.2459 27.4595C18.9643 27.0651 18.4578 26.6158 17.8952 26.2214C17.333 25.7713 16.6574 24.9276 16.207 24.365C16.0944 24.2525 15.9257 23.6899 15.8696 23.5213C15.7783 23.2885 15.7402 23.0389 15.7574 22.7897L15.9829 22.6772L16.6017 22.5086C16.7139 22.5086 16.8265 22.3961 16.8265 22.3396V22.2832L16.77 22.2264H16.0944L15.8131 22.0017C15.8131 21.8895 15.9257 21.8327 15.9822 21.7763C16.3761 21.7198 16.6567 21.6073 16.8822 21.4391C16.8914 21.4024 16.8914 21.3636 16.8822 21.3269L16.0944 21.2705L15.8696 21.1015C15.8696 20.989 15.9822 20.989 16.038 20.9326L16.4883 20.7079L16.8257 20.4825V20.37C16.5444 20.37 16.2635 20.37 15.9257 20.2574L15.8689 20.201C15.8909 20.1361 15.9294 20.0782 15.9815 20.0328C16.1498 20.0328 16.5444 19.9763 16.7128 19.8638C16.7601 19.8385 16.7993 19.7989 16.825 19.7516C16.7968 19.7055 16.7586 19.667 16.7128 19.6391C16.466 19.6223 16.2213 19.5845 15.9815 19.527C15.925 19.527 15.8689 19.527 15.8689 19.4145L15.9815 19.3019L16.6563 19.1898C16.7264 19.1495 16.785 19.0912 16.825 19.0208L16.6563 18.9083L16.0941 18.7961C16.0361 18.7829 15.9796 18.7639 15.9257 18.7401V18.6279L16.0941 18.5715L16.488 18.4589C16.6002 18.4589 16.7128 18.3464 16.7128 18.29L16.7278 18.2335L16.7128 18.1771H16.0372L15.8124 18.0646L15.9815 17.9524C16.1498 17.9524 16.3754 17.8399 16.5444 17.727L16.6009 17.6145C16.5668 17.5896 16.5287 17.5712 16.4883 17.5581C16.2984 17.5108 16.1109 17.454 15.9257 17.3898C15.9129 17.3337 15.9129 17.2762 15.9257 17.2209L15.9822 17.1083H16.3196C16.2749 16.9903 16.218 16.8771 16.1513 16.7708C16.1256 16.7235 16.086 16.6846 16.0387 16.6582C15.8704 16.5457 15.6448 16.4893 15.4757 16.3203C15.1383 16.1517 14.8005 15.9267 14.5189 15.6456C14.1639 15.3556 13.9082 14.9627 13.7876 14.5203C13.7392 14.2411 13.7392 13.9559 13.7876 13.6766C13.7876 13.4512 13.9559 13.2265 14.0692 13.0019V12.8329C13.92 12.6291 13.7502 12.44 13.5628 12.2703C13.4634 12.1908 13.3486 12.1336 13.2254 12.1013L12.4376 11.8767C12.2128 11.8202 12.0437 11.7641 11.875 11.8202C11.7723 11.9338 11.696 12.068 11.6498 12.2138L11.8181 13.0576C12.0437 13.0576 12.3804 13.1701 12.6628 13.3391C12.8876 13.5073 12.9441 13.5637 13.0567 13.9013C13.2815 14.5764 13.3379 15.4201 13.4505 16.3203C13.6189 17.2209 13.1689 17.9524 12.2689 18.0081C12.0569 18.0096 11.8471 17.9715 11.6498 17.8956C11.4807 17.8956 11.3124 17.7835 11.2559 17.558L10.9746 16.8265C10.9746 16.6018 10.862 16.3764 10.8063 16.2639L8.83682 16.939L7.14867 17.7827C5.967 18.2328 4.67274 18.5707 3.4918 18.5707C2.8731 18.5707 2.14106 18.4018 1.69143 18.2328C1.24069 18.0646 1.1292 17.8956 1.01588 17.3334C0.894847 16.3218 1.03055 15.2966 1.40977 14.3517C1.57811 14.0138 1.74718 13.7891 1.97273 13.6766C2.22579 13.5722 2.49021 13.4974 2.76051 13.4512C3.04217 13.3391 3.26699 13.3391 3.54829 13.3391L4.16699 13.4512C4.5044 13.6202 4.56088 13.8456 4.56088 14.1828V15.0829C5.01162 15.1394 5.85515 15.0829 6.24904 15.0265C6.662 14.933 7.05992 14.7813 7.43071 14.5764C7.88071 14.4075 8.4433 13.9574 9.11886 13.6194L9.17533 13.6759L9.16948 13.6708Z" fill="black" fill-opacity="0.89"/>
  <path d="M40.0124 8.94238V19.311H45.8251V20.6029H38.5461V8.94238H40.0124Z" fill="black" fill-opacity="0.89"/>
  <path d="M53.1387 18.0895L54.3781 18.4386C53.9766 20.1318 52.6325 20.8125 51.0789 20.8125C48.6874 20.8125 47.1862 19.2241 47.1862 16.2738C47.1862 13.4288 48.7224 11.6657 51.0789 11.6657C53.2609 11.6657 54.4655 13.2541 54.4655 15.3315C54.4655 15.8377 54.3781 16.2738 54.2907 16.5011H48.5652C48.635 18.456 49.5079 19.6779 51.0789 19.6779C52.1263 19.6779 52.8769 19.189 53.1387 18.0895ZM53.034 15.4537C53.0514 15.2965 53.0514 15.122 53.0514 14.9999C53.0514 13.7779 52.3532 12.7655 51.0439 12.7655C49.6475 12.7655 48.7922 13.7605 48.6002 15.4537H53.034Z" fill="black" fill-opacity="0.89"/>
  <path d="M62.3712 18.8924C62.3712 19.451 62.6156 19.6606 63.017 19.6606C63.2091 19.6606 63.4361 19.5732 63.5582 19.4684L63.6456 20.5331C63.4187 20.6904 62.9996 20.7777 62.6853 20.7777C62.0222 20.7777 61.5509 20.4983 61.2892 19.9922C61.1845 19.8001 61.1145 19.5732 61.0621 19.3111C60.713 20.2713 59.6308 20.7951 58.5311 20.7951C56.995 20.7951 55.8254 19.9049 55.8254 18.3338C55.8254 16.6055 57.2219 15.5061 60.2068 15.5061C60.3989 15.5061 60.713 15.5235 61.0273 15.5409V14.511C61.0273 13.4636 60.4511 12.8353 59.2992 12.8353C58.1646 12.8353 57.6234 13.4462 57.5884 14.4063L56.1919 14.162C56.384 12.5386 57.7106 11.6657 59.3863 11.6657C61.2193 11.6657 62.3713 12.521 62.3713 14.3539L62.3712 18.8924ZM61.0273 16.6055C60.8004 16.5881 60.5035 16.5707 60.2068 16.5707C58.2692 16.5707 57.2393 17.0945 57.2393 18.2813C57.2393 19.1368 57.8329 19.6954 58.8627 19.6954C59.9449 19.6954 61.0273 19.0146 61.0273 17.3388L61.0273 16.6055Z" fill="black" fill-opacity="0.89"/>
  <path d="M66.5081 13.551C66.8048 12.5909 67.8871 11.6657 69.2661 11.6657C71.7448 11.6657 72.932 13.6382 72.932 16.239C72.932 18.8399 71.5179 20.8125 69.179 20.8125C67.8871 20.8125 67.0144 20.1666 66.7001 19.4336V24.0593H65.2688V11.8752H66.3336L66.5081 13.551ZM66.7001 17.1815C66.7001 18.9446 67.8697 19.6779 68.9694 19.6779C70.4183 19.6779 71.4831 18.5608 71.4831 16.239C71.4831 13.9175 70.5405 12.8179 68.9694 12.8179C67.8697 12.8179 66.7001 13.6557 66.7001 15.6282V17.1815Z" fill="black" fill-opacity="0.89"/>
  <path d="M74.0481 17.3919L75.3922 16.9732C75.6191 18.6138 76.876 19.6089 78.4471 19.6089C79.8608 19.6089 81.0303 18.9455 81.0303 17.5666C81.0303 14.5119 74.5717 16.3447 74.5717 12.0332C74.5717 10.0432 76.2651 8.73405 78.4295 8.73405C80.5591 8.73405 82.1126 9.67652 82.3744 11.8585L81.0129 12.1554C80.8558 10.8113 79.8782 9.93842 78.4471 9.93842C76.9632 9.93842 75.9858 10.7589 75.9858 11.9633C75.9858 15.0181 82.4442 13.0805 82.4442 17.5141C82.4442 19.6263 80.6463 20.8134 78.4471 20.8134C76.0556 20.8134 74.3624 19.5215 74.0481 17.3919Z" fill="black" fill-opacity="0.89"/>
  <path d="M85.7771 13.551C86.0738 12.5909 87.156 11.6657 88.5352 11.6657C91.0141 11.6657 92.2009 13.6382 92.2009 16.239C92.2009 18.8399 90.7872 20.8125 88.4479 20.8125C87.156 20.8125 86.2833 20.1666 85.969 19.4336V24.0593H84.5377V11.8752H85.6025L85.7771 13.551ZM85.969 17.1815C85.969 18.9446 87.1386 19.6779 88.2384 19.6779C89.6872 19.6779 90.752 18.5608 90.752 16.239C90.752 13.9175 89.8094 12.8179 88.2384 12.8179C87.1386 12.8179 85.969 13.6557 85.969 15.6282V17.1815Z" fill="black" fill-opacity="0.89"/>
  <path d="M100.126 18.8924C100.126 19.451 100.37 19.6606 100.771 19.6606C100.963 19.6606 101.19 19.5732 101.313 19.4684L101.4 20.5331C101.173 20.6904 100.754 20.7777 100.44 20.7777C99.7764 20.7777 99.3052 20.4983 99.0431 19.9922C98.9384 19.8001 98.8688 19.5732 98.8162 19.3111C98.4671 20.2713 97.3847 20.7951 96.2853 20.7951C94.7491 20.7951 93.5793 19.9049 93.5793 18.3338C93.5793 16.6055 94.976 15.5061 97.9611 15.5061C98.1529 15.5061 98.4671 15.5235 98.7814 15.5409V14.511C98.7814 13.4636 98.2054 12.8353 97.0531 12.8353C95.9185 12.8353 95.3773 13.4462 95.3425 14.4063L93.9462 14.162C94.1379 12.5386 95.4646 11.6657 97.1404 11.6657C98.9735 11.6657 100.126 12.521 100.126 14.3539V18.8924ZM98.7814 16.6055C98.5545 16.5881 98.2576 16.5707 97.9611 16.5707C96.0232 16.5707 94.9934 17.0945 94.9934 18.2813C94.9934 19.1368 95.5868 19.6954 96.617 19.6954C97.699 19.6954 98.7814 19.0146 98.7814 17.3388V16.6055Z" fill="black" fill-opacity="0.89"/>
  <path d="M106.286 11.6657C108.067 11.6657 109.306 12.7479 109.481 14.3365L108.171 14.5808C108.084 13.6208 107.421 12.8003 106.286 12.8003C104.663 12.8003 103.843 14.1968 103.843 16.239C103.843 18.2813 104.663 19.6779 106.286 19.6779C107.421 19.6779 108.084 18.875 108.171 17.8623L109.481 18.1069C109.236 19.8001 108.067 20.8125 106.286 20.8125C103.93 20.8125 102.394 19.1194 102.394 16.239C102.394 13.3765 103.93 11.6657 106.286 11.6657Z" fill="black" fill-opacity="0.89"/>
<path d="M116.741 18.0895L117.981 18.4386C117.579 20.1318 116.235 20.8125 114.682 20.8125C112.29 20.8125 110.789 19.2241 110.789 16.2738C110.789 13.4288 112.325 11.6657 114.682 11.6657C116.864 11.6657 118.068 13.2541 118.068 15.3315C118.068 15.8377 117.981 16.2738 117.894 16.5011H112.168C112.238 18.456 113.111 19.6779 114.682 19.6779C115.729 19.6779 116.48 19.189 116.741 18.0895ZM116.637 15.4537C116.654 15.2965 116.654 15.122 116.654 14.9999C116.654 13.7779 115.956 12.7655 114.647 12.7655C113.25 12.7655 112.395 13.7605 112.203 15.4537H116.637Z" fill="black" fill-opacity="0.89"/>
</svg>
