<?xml version="1.0" encoding="UTF-8"?>
<svg width="144px" height="40px" viewBox="0 0 144 40" version="1.1" xmlns="http://www.w3.org/2000/svg" xmlns:xlink="http://www.w3.org/1999/xlink">
    <!-- Generator: Sketch 50 (54983) - http://www.bohemiancoding.com/sketch -->
    <title>Experiments_logo_RGB</title>
    <desc>Created with Sketch.</desc>
    <defs></defs>
    <g id="Page-1" stroke="none" stroke-width="1" fill="none" fill-rule="evenodd">
        <g id="Experiments-Search" transform="translate(-176.000000, -13.000000)" fill-rule="nonzero">
            <g id="Experiments_logo_RGB" transform="translate(176.000000, 13.000000)">
                <g id="Group" transform="translate(0.000000, 15.609756)" fill="#1A2D59">
                    <polygon id="Shape" points="0.101052632 17.4146341 1.86947368 17.0243902 1.86947368 3.65853659 0.151578947 3.41463415 0.151578947 1.95121951 12.3284211 1.95121951 12.6821053 5.36585366 10.8631579 5.36585366 10.0547368 3.6097561 5.05263158 3.41463415 5.05263158 9.26829268 8.43789474 9.17073171 8.94315789 7.51219512 10.56 7.51219512 10.56 12.4878049 8.94315789 12.4878049 8.43789474 10.8292683 5.05263158 10.7804878 5.05263158 17.1707317 10.7115789 16.8780488 12.0252632 14.7317073 13.7936842 15.0731707 13.1368421 18.6829268 0.101052632 18.6829268"></polygon>
                    <path d="M14.3494737,17.4634146 L16.1178947,17.1707317 L19.6547368,12.9268293 L15.8652632,8.48780488 L14.4,8.24390244 L14.4,6.68292683 L20.7663158,6.68292683 L20.7663158,8.24390244 L19.5031579,8.48780488 L20.6652632,10.1463415 L21.6757895,11.4634146 L22.0294737,10.8780488 L23.8989474,8.3902439 L22.3831579,8.19512195 L22.3831579,6.63414634 L28.0421053,6.63414634 L28.0421053,8.19512195 L26.1726316,8.48780488 L22.7368421,12.4390244 L26.6778947,17.1707317 L28.0926316,17.4634146 L28.0926316,18.6829268 L21.8778947,18.6829268 L21.8778947,17.4634146 L23.0905263,17.1707317 C22.7368421,16.6829268 22.4336842,16.2926829 22.1810526,16 C21.9284211,15.7073171 21.8273684,15.5121951 21.7768421,15.5121951 L20.6652632,14.0487805 L20.4126316,14.6341463 L18.6442105,17.1707317 L20.4126316,17.4634146 L20.4126316,18.6829268 L14.3494737,18.6829268 L14.3494737,17.4634146 Z" id="Shape"></path>
                    <path d="M30.7705263,22.6829268 L30.7705263,9.41463415 L29.2042105,8.48780488 L29.2042105,7.41463415 L32.8421053,6.34146341 L33.4989474,6.53658537 L33.4989474,7.85365854 C33.6,7.75609756 33.7515789,7.56097561 33.9536842,7.41463415 C34.1557895,7.2195122 34.4084211,7.07317073 34.7621053,6.87804878 C35.0652632,6.73170732 35.4694737,6.58536585 35.8736842,6.43902439 C36.2778947,6.34146341 36.7326316,6.24390244 37.2378947,6.24390244 C37.8947368,6.24390244 38.5010526,6.34146341 39.1073684,6.53658537 C39.7136842,6.73170732 40.2189474,7.07317073 40.7242105,7.56097561 C41.1789474,8.04878049 41.5831579,8.63414634 41.8357895,9.41463415 C42.0884211,10.195122 42.24,11.1219512 42.24,12.2439024 C42.24,13.1707317 42.0884211,14 41.7347368,14.8292683 C41.3810526,15.6585366 40.9263158,16.3414634 40.32,16.9268293 C39.7136842,17.5121951 39.0063158,18 38.1978947,18.3902439 C37.3894737,18.7317073 36.48,18.9268293 35.52,18.9268293 C35.1663158,18.9268293 34.8631579,18.8780488 34.56,18.8292683 C34.2568421,18.7804878 34.0042105,18.7317073 33.8021053,18.6829268 L33.9031579,20.9268293 L33.9031579,22.6341463 L36.1768421,22.9268293 L36.1768421,24.1463415 L29.2547368,24.1463415 L29.2547368,22.9268293 L30.7705263,22.6829268 Z M33.9031579,16.5365854 C33.9536842,16.6829268 34.0547368,16.7804878 34.2063158,16.8780488 C34.3578947,16.9756098 34.5094737,17.0731707 34.7115789,17.1219512 C34.9136842,17.1707317 35.1157895,17.2682927 35.3178947,17.2682927 C35.52,17.3170732 35.7726316,17.3170732 36.0252632,17.3170732 C36.3789474,17.3170732 36.7326316,17.2195122 37.0863158,17.0731707 C37.44,16.9268293 37.7936842,16.6829268 38.0968421,16.2926829 C38.4,15.9512195 38.6526316,15.4634146 38.8042105,14.8780488 C39.0063158,14.2926829 39.1073684,13.5609756 39.1073684,12.6829268 C39.1073684,11.7560976 39.0063158,10.9756098 38.8042105,10.3902439 C38.6021053,9.80487805 38.3494737,9.31707317 38.0463158,8.92682927 C37.7431579,8.58536585 37.3894737,8.29268293 37.0357895,8.14634146 C36.6821053,8 36.2778947,7.95121951 35.9242105,7.95121951 C35.6715789,7.95121951 35.4189474,8 35.2168421,8.04878049 C35.0147368,8.09756098 34.8126316,8.19512195 34.6610526,8.29268293 C34.5094737,8.3902439 34.3578947,8.48780488 34.2063158,8.58536585 C34.0547368,8.68292683 33.9536842,8.7804878 33.9031579,8.87804878 L33.9031579,12.9268293 L33.9031579,16.5365854 Z" id="Shape"></path>
                    <path d="M43.8063158,12.8780488 C43.8063158,11.9512195 43.9578947,11.1219512 44.2610526,10.2926829 C44.5642105,9.51219512 45.0189474,8.82926829 45.5747368,8.24390244 C46.1305263,7.65853659 46.8378947,7.2195122 47.6463158,6.87804878 C48.4547368,6.53658537 49.3642105,6.34146341 50.3747368,6.34146341 C51.1831579,6.34146341 51.84,6.43902439 52.4463158,6.63414634 C53.0526316,6.82926829 53.5578947,7.17073171 53.9115789,7.56097561 C54.3157895,7.95121951 54.6189474,8.43902439 54.8210526,8.97560976 C55.0231579,9.51219512 55.1242105,10.1463415 55.1747368,10.8292683 C55.1747368,11.2682927 55.1747368,11.6585366 55.1242105,12 C55.0736842,12.3414634 55.0736842,12.6341463 55.0231579,12.9268293 L47.04,12.9268293 C47.04,12.9268293 47.04,12.9756098 47.04,12.9756098 C47.04,12.9756098 47.04,13.0243902 47.04,13.0243902 C47.0905263,13.7560976 47.1915789,14.3902439 47.4442105,14.9268293 C47.6463158,15.4634146 47.9494737,15.8536585 48.3031579,16.195122 C48.6568421,16.5365854 49.0610526,16.7804878 49.5157895,16.9268293 C49.9705263,17.0731707 50.4757895,17.1707317 50.9810526,17.1707317 C51.2336842,17.1707317 51.5368421,17.1707317 51.84,17.1219512 C52.1431579,17.0731707 52.4463158,17.0731707 52.7494737,16.9756098 C53.0526316,16.9268293 53.3557895,16.8292683 53.6084211,16.7804878 C53.9115789,16.6829268 54.1642105,16.5853659 54.3663158,16.4878049 L54.8715789,17.6585366 C54.6189474,17.8536585 54.3157895,18.0487805 53.9115789,18.2439024 C53.5578947,18.4390244 53.1031579,18.5853659 52.6989474,18.6829268 C52.2442105,18.7804878 51.7894737,18.8780488 51.2842105,18.9756098 C50.7789474,19.0243902 50.2736842,19.0731707 49.8189474,19.0731707 C48.8589474,19.0731707 48,18.9268293 47.2421053,18.6341463 C46.4842105,18.3414634 45.8778947,17.9512195 45.3726316,17.4146341 C44.8673684,16.8780488 44.4631579,16.2439024 44.2105263,15.5121951 C43.9578947,14.6341463 43.8063158,13.804878 43.8063158,12.8780488 Z M51.9915789,11.3658537 C51.9915789,11.0731707 52.0421053,10.7317073 52.0421053,10.3902439 C52.0421053,10.0487805 52.0421053,9.75609756 51.9915789,9.41463415 C51.9410526,9.12195122 51.84,8.82926829 51.7389474,8.58536585 C51.5873684,8.34146341 51.4357895,8.09756098 51.1831579,7.95121951 C51.0315789,7.85365854 50.8294737,7.75609756 50.6273684,7.70731707 C50.4252632,7.65853659 50.1726316,7.6097561 49.92,7.6097561 C49.4652632,7.6097561 49.1115789,7.70731707 48.7578947,7.90243902 C48.4042105,8.09756098 48.1515789,8.34146341 47.8989474,8.68292683 C47.6463158,9.02439024 47.4947368,9.41463415 47.3431579,9.85365854 C47.1915789,10.2926829 47.0905263,10.7804878 47.0905263,11.3170732 L51.9915789,11.3170732 L51.9915789,11.3658537 Z" id="Shape"></path>
                    <path d="M56.7915789,17.4634146 L58.3578947,17.2195122 L58.3578947,9.41463415 L56.7915789,8.48780488 L56.7915789,7.41463415 L60.4294737,6.3902439 L61.0863158,6.58536585 L61.0863158,8.48780488 C61.1873684,8.19512195 61.3894737,7.90243902 61.6421053,7.65853659 C61.8947368,7.41463415 62.1978947,7.17073171 62.5515789,6.97560976 C62.9052632,6.7804878 63.2084211,6.63414634 63.5621053,6.53658537 C63.9157895,6.43902439 64.2189474,6.3902439 64.5221053,6.3902439 C64.7747368,6.3902439 65.0273684,6.3902439 65.2294737,6.43902439 C65.4315789,6.43902439 65.5831579,6.48780488 65.6842105,6.53658537 L65.6842105,9.41463415 C65.4821053,9.26829268 65.1789474,9.17073171 64.8252632,9.07317073 C64.4715789,8.97560976 64.1178947,8.92682927 63.7136842,8.92682927 C63.4105263,8.92682927 63.1073684,8.92682927 62.9052632,8.97560976 C62.6526316,9.02439024 62.4505263,9.07317073 62.2484211,9.12195122 C62.0463158,9.17073171 61.8947368,9.2195122 61.7936842,9.31707317 C61.6421053,9.36585366 61.5410526,9.46341463 61.44,9.51219512 L61.44,17.1707317 L64.2694737,17.5121951 L64.2694737,18.7317073 L56.6905263,18.7317073 L56.6905263,17.4634146 L56.7915789,17.4634146 Z" id="Shape"></path>
                    <path d="M67.0989474,17.4634146 L68.7663158,17.1707317 L68.7663158,9.56097561 L67.3010526,8.34146341 L67.3010526,7.46341463 L71.1410526,6.29268293 L71.8989474,6.53658537 L71.8989474,17.1219512 L73.6168421,17.3658537 L73.6168421,18.5853659 L67.1494737,18.5853659 L67.1494737,17.4634146 L67.0989474,17.4634146 Z M69.9284211,4.19512195 C69.6757895,4.19512195 69.4231579,4.14634146 69.2210526,4.09756098 C68.9684211,4 68.7663158,3.90243902 68.6147368,3.75609756 C68.4126316,3.6097561 68.3115789,3.41463415 68.2105263,3.2195122 C68.1094737,3.02439024 68.0589474,2.7804878 68.0589474,2.48780488 C68.0589474,2.19512195 68.1094737,1.90243902 68.2610526,1.65853659 C68.4126316,1.41463415 68.5642105,1.17073171 68.7663158,1.02439024 C68.9684211,0.829268293 69.2210526,0.682926829 69.5242105,0.585365854 C69.7768421,0.487804878 70.08,0.43902439 70.3326316,0.43902439 C70.6863158,0.43902439 70.9389474,0.487804878 71.1915789,0.585365854 C71.4442105,0.682926829 71.6463158,0.780487805 71.7978947,0.975609756 C71.9494737,1.12195122 72.0505263,1.31707317 72.1515789,1.51219512 C72.2021053,1.70731707 72.2526316,1.95121951 72.2526316,2.19512195 C72.2526316,2.48780488 72.2021053,2.7804878 72.0505263,3.02439024 C71.8989474,3.26829268 71.7473684,3.51219512 71.5452632,3.65853659 C71.3431579,3.85365854 71.0905263,3.95121951 70.8378947,4.04878049 C70.4842105,4.14634146 70.2315789,4.19512195 69.9284211,4.19512195 Z" id="Shape"></path>
                    <path d="M74.8294737,17.4634146 L76.2947368,17.2195122 L76.2947368,9.41463415 L74.7284211,8.48780488 L74.7284211,7.41463415 L78.3157895,6.34146341 L78.9726316,6.53658537 L78.9726316,8.09756098 C79.2252632,7.85365854 79.4778947,7.65853659 79.8315789,7.46341463 C80.1347368,7.26829268 80.4884211,7.07317073 80.8926316,6.92682927 C81.2463158,6.7804878 81.6505263,6.63414634 82.0547368,6.53658537 C82.4589474,6.43902439 82.8631579,6.3902439 83.2168421,6.34146341 C83.6210526,6.34146341 83.9747368,6.34146341 84.3284211,6.3902439 C84.6821053,6.43902439 85.0357895,6.53658537 85.3389474,6.63414634 C85.6421053,6.7804878 85.8947368,6.92682927 86.1473684,7.17073171 C86.4,7.36585366 86.5515789,7.65853659 86.7031579,8 C86.9557895,7.80487805 87.2589474,7.6097561 87.5621053,7.41463415 C87.8652632,7.2195122 88.2189474,7.07317073 88.5726316,6.87804878 C88.9263158,6.73170732 89.3305263,6.58536585 89.7347368,6.53658537 C90.1389474,6.43902439 90.5431579,6.3902439 90.9473684,6.3902439 C91.6547368,6.3902439 92.2610526,6.48780488 92.7663158,6.68292683 C93.2715789,6.87804878 93.6757895,7.2195122 93.9789474,7.65853659 C94.2821053,8.09756098 94.5347368,8.63414634 94.6863158,9.26829268 C94.8378947,9.90243902 94.8884211,10.6829268 94.8884211,11.5121951 L94.8884211,17.2195122 L96.6063158,17.5121951 L96.6063158,18.7317073 L90.4421053,18.7317073 L90.4421053,17.5121951 L91.8568421,17.2195122 L91.8568421,11.9512195 C91.8568421,11.2682927 91.8063158,10.6829268 91.7557895,10.2439024 C91.6547368,9.80487805 91.5536842,9.41463415 91.3515789,9.17073171 C91.1494737,8.87804878 90.8968421,8.73170732 90.5936842,8.63414634 C90.2905263,8.53658537 89.8863158,8.48780488 89.3810526,8.48780488 C89.0273684,8.48780488 88.6231579,8.58536585 88.2694737,8.68292683 C87.8652632,8.82926829 87.5115789,8.97560976 87.2084211,9.17073171 C87.2589474,9.41463415 87.3094737,9.70731707 87.3094737,10.0487805 C87.36,10.3902439 87.36,10.7804878 87.36,11.3170732 L87.36,17.2682927 L88.9768421,17.5609756 L88.9768421,18.7804878 L82.56,18.7804878 L82.56,17.5609756 L84.1768421,17.2682927 L84.1768421,11.902439 C84.1768421,11.2195122 84.1263158,10.6341463 84.0252632,10.195122 C83.9242105,9.75609756 83.7726316,9.41463415 83.5705263,9.12195122 C83.3684211,8.87804878 83.1157895,8.68292683 82.7621053,8.58536585 C82.4084211,8.48780488 82.0042105,8.43902439 81.5494737,8.48780488 C81.3978947,8.48780488 81.2463158,8.53658537 81.0947368,8.58536585 C80.8926316,8.63414634 80.7410526,8.68292683 80.5389474,8.73170732 C80.3368421,8.7804878 80.1852632,8.87804878 79.9831579,8.97560976 C79.7810526,9.07317073 79.6294737,9.17073171 79.4778947,9.31707317 L79.4778947,12.2439024 C79.4778947,12.3902439 79.4778947,12.5853659 79.4778947,12.8292683 C79.4778947,13.0731707 79.4778947,13.3170732 79.4778947,13.6097561 C79.4778947,13.902439 79.4778947,14.195122 79.4778947,14.5365854 C79.4778947,14.8780488 79.4778947,15.1707317 79.4778947,15.5121951 C79.4778947,15.8536585 79.4778947,16.1463415 79.4778947,16.4390244 C79.4778947,16.7317073 79.4778947,17.0243902 79.4778947,17.2195122 L81.0442105,17.5121951 L81.0442105,18.7317073 L74.88,18.7317073 L74.88,17.4634146 L74.8294737,17.4634146 Z" id="Shape"></path>
                    <path d="M97.3642105,12.8780488 C97.3642105,11.9512195 97.5157895,11.1219512 97.8189474,10.2926829 C98.1221053,9.51219512 98.5768421,8.82926829 99.1326316,8.24390244 C99.6884211,7.65853659 100.395789,7.2195122 101.204211,6.87804878 C102.012632,6.53658537 102.922105,6.34146341 103.932632,6.34146341 C104.741053,6.34146341 105.397895,6.43902439 106.004211,6.63414634 C106.610526,6.82926829 107.115789,7.17073171 107.469474,7.56097561 C107.873684,7.95121951 108.176842,8.43902439 108.378947,8.97560976 C108.581053,9.51219512 108.682105,10.1463415 108.732632,10.8292683 C108.732632,11.2682927 108.732632,11.6585366 108.682105,12 C108.631579,12.3414634 108.631579,12.6341463 108.581053,12.9268293 L100.597895,12.9268293 C100.597895,12.9268293 100.597895,12.9756098 100.597895,12.9756098 C100.597895,12.9756098 100.597895,13.0243902 100.597895,13.0243902 C100.648421,13.7560976 100.749474,14.3902439 101.002105,14.9268293 C101.204211,15.4634146 101.507368,15.8536585 101.861053,16.195122 C102.214737,16.5365854 102.618947,16.7804878 103.073684,16.9268293 C103.528421,17.0731707 104.033684,17.1707317 104.538947,17.1707317 C104.791579,17.1707317 105.094737,17.1707317 105.397895,17.1219512 C105.701053,17.0731707 106.004211,17.0731707 106.307368,16.9756098 C106.610526,16.8780488 106.913684,16.8292683 107.166316,16.7804878 C107.469474,16.6829268 107.722105,16.5853659 107.924211,16.4878049 L108.429474,17.6585366 C108.176842,17.8536585 107.873684,18.0487805 107.469474,18.2439024 C107.065263,18.4390244 106.661053,18.5853659 106.256842,18.6829268 C105.802105,18.7804878 105.347368,18.8780488 104.842105,18.9756098 C104.336842,19.0243902 103.831579,19.0731707 103.376842,19.0731707 C102.416842,19.0731707 101.557895,18.9268293 100.8,18.6341463 C100.042105,18.3414634 99.4357895,17.9512195 98.9305263,17.4146341 C98.4252632,16.8780488 98.0210526,16.2439024 97.7684211,15.5121951 C97.5157895,14.6341463 97.3642105,13.804878 97.3642105,12.8780488 Z M105.6,11.3658537 C105.6,11.0731707 105.650526,10.7317073 105.650526,10.3902439 C105.650526,10.0487805 105.650526,9.75609756 105.6,9.41463415 C105.549474,9.12195122 105.448421,8.82926829 105.347368,8.58536585 C105.195789,8.34146341 105.044211,8.09756098 104.791579,7.95121951 C104.64,7.85365854 104.437895,7.75609756 104.235789,7.70731707 C104.033684,7.65853659 103.781053,7.6097561 103.528421,7.6097561 C103.073684,7.6097561 102.72,7.70731707 102.366316,7.90243902 C102.012632,8.09756098 101.76,8.34146341 101.507368,8.68292683 C101.254737,9.02439024 101.103158,9.41463415 100.951579,9.85365854 C100.8,10.2926829 100.698947,10.7804878 100.698947,11.3170732 L105.6,11.3170732 L105.6,11.3658537 Z" id="Shape"></path>
                    <path d="M110.501053,17.4634146 L111.966316,17.2195122 L111.966316,9.41463415 L110.4,8.48780488 L110.4,7.41463415 L114.037895,6.3902439 L114.745263,6.58536585 L114.745263,8.14634146 C114.997895,7.90243902 115.351579,7.65853659 115.705263,7.46341463 C116.058947,7.26829268 116.463158,7.07317073 116.867368,6.92682927 C117.271579,6.7804878 117.675789,6.63414634 118.130526,6.53658537 C118.534737,6.43902439 118.989474,6.3902439 119.393684,6.3902439 C120.101053,6.3902439 120.656842,6.48780488 121.162105,6.68292683 C121.616842,6.87804878 122.021053,7.2195122 122.273684,7.6097561 C122.576842,8 122.778947,8.53658537 122.88,9.17073171 C122.981053,9.80487805 123.082105,10.5365854 123.082105,11.3170732 L123.082105,17.2195122 L124.749474,17.4634146 L124.749474,18.6829268 L118.282105,18.6829268 L118.282105,17.4634146 L119.898947,17.1707317 L119.898947,11.7560976 C119.898947,11.1707317 119.848421,10.6341463 119.797895,10.195122 C119.747368,9.75609756 119.646316,9.41463415 119.444211,9.17073171 C119.292632,8.92682927 119.04,8.73170732 118.736842,8.63414634 C118.433684,8.53658537 118.029474,8.48780488 117.524211,8.48780488 C117.372632,8.48780488 117.221053,8.53658537 117.018947,8.53658537 C116.816842,8.58536585 116.614737,8.63414634 116.412632,8.68292683 C116.210526,8.73170732 116.008421,8.82926829 115.806316,8.92682927 C115.604211,9.02439024 115.402105,9.12195122 115.250526,9.26829268 L115.250526,17.2682927 L116.766316,17.5609756 L116.766316,18.7804878 L110.652632,18.7804878 L110.652632,17.4634146 L110.501053,17.4634146 Z" id="Shape"></path>
                    <path d="M126.366316,8.34146341 L124.648421,8.34146341 L124.648421,7.31707317 C124.901053,7.26829268 125.153684,7.2195122 125.355789,7.17073171 C125.557895,7.12195122 125.76,7.07317073 125.911579,7.02439024 C126.063158,6.97560976 126.214737,6.87804878 126.366316,6.7804878 C126.517895,6.68292683 126.618947,6.58536585 126.72,6.43902439 C126.821053,6.34146341 126.922105,6.19512195 127.023158,6 C127.124211,5.80487805 127.225263,5.6097561 127.326316,5.36585366 C127.427368,5.12195122 127.528421,4.87804878 127.629474,4.63414634 C127.730526,4.3902439 127.781053,4.09756098 127.882105,3.85365854 L129.397895,3.85365854 L129.397895,6.73170732 L133.187368,6.73170732 L133.187368,8.3902439 L129.498947,8.3902439 L129.498947,12.9756098 C129.498947,13.902439 129.498947,14.5853659 129.549474,15.1707317 C129.6,15.7073171 129.650526,16.1463415 129.751579,16.4390244 C129.852632,16.7317073 130.004211,16.9268293 130.155789,17.0243902 C130.307368,17.1219512 130.56,17.1707317 130.812632,17.1707317 C130.964211,17.1707317 131.166316,17.1707317 131.368421,17.1219512 C131.570526,17.0731707 131.772632,17.0731707 131.974737,17.0243902 C132.176842,16.9756098 132.328421,16.9268293 132.530526,16.8780488 C132.682105,16.8292683 132.833684,16.7804878 132.934737,16.7317073 L133.389474,17.8536585 C133.237895,18.0487805 132.985263,18.195122 132.682105,18.3414634 C132.378947,18.4878049 132.075789,18.6341463 131.671579,18.7317073 C131.317895,18.8292683 130.913684,18.9268293 130.509474,18.9756098 C130.105263,19.0243902 129.701053,19.0731707 129.296842,19.0731707 C128.741053,19.0731707 128.286316,19.0243902 127.932632,18.8780488 C127.578947,18.7317073 127.275789,18.5365854 127.023158,18.2439024 C126.770526,17.9512195 126.618947,17.5609756 126.517895,17.1219512 C126.416842,16.6829268 126.366316,16.1463415 126.366316,15.5121951 L126.366316,8.34146341 Z" id="Shape"></path>
                    <path d="M134.147368,15.3170732 L135.612632,15.3170732 L136.218947,16.5365854 C136.370526,16.6341463 136.471579,16.7804878 136.623158,16.8780488 C136.774737,16.9756098 136.926316,17.1219512 137.128421,17.2195122 C137.330526,17.3170732 137.482105,17.4146341 137.734737,17.4634146 C137.936842,17.5121951 138.189474,17.5609756 138.442105,17.6097561 C139.2,17.6585366 139.755789,17.5121951 140.210526,17.2195122 C140.614737,16.9268293 140.867368,16.4878049 140.867368,15.9512195 C140.867368,15.7073171 140.766316,15.4634146 140.614737,15.2682927 C140.463158,15.0731707 140.210526,14.8780488 139.957895,14.7317073 C139.654737,14.5365854 139.351579,14.3902439 138.997895,14.2439024 C138.644211,14.097561 138.24,13.902439 137.886316,13.7560976 C137.381053,13.5121951 136.926316,13.3170732 136.471579,13.0243902 C136.016842,12.7804878 135.612632,12.4878049 135.258947,12.1463415 C134.905263,11.804878 134.652632,11.4634146 134.450526,11.0731707 C134.248421,10.6829268 134.147368,10.195122 134.147368,9.65853659 C134.147368,9.26829268 134.248421,8.87804878 134.4,8.58536585 C134.551579,8.24390244 134.753684,8 135.006316,7.75609756 C135.258947,7.51219512 135.562105,7.31707317 135.865263,7.12195122 C136.218947,6.92682927 136.522105,6.7804878 136.926316,6.68292683 C137.28,6.58536585 137.684211,6.48780488 138.037895,6.43902439 C138.442105,6.3902439 138.795789,6.34146341 139.098947,6.34146341 C139.503158,6.34146341 139.907368,6.34146341 140.261053,6.3902439 C140.665263,6.43902439 141.018947,6.48780488 141.372632,6.53658537 C141.726316,6.58536585 142.029474,6.68292683 142.332632,6.7804878 C142.635789,6.87804878 142.888421,6.92682927 143.090526,7.02439024 L143.090526,9.70731707 L141.574737,9.70731707 L141.018947,8.43902439 C140.816842,8.24390244 140.564211,8.04878049 140.261053,7.85365854 C139.957895,7.70731707 139.604211,7.6097561 139.2,7.6097561 C138.947368,7.6097561 138.694737,7.65853659 138.442105,7.70731707 C138.189474,7.75609756 137.987368,7.85365854 137.785263,7.95121951 C137.583158,8.04878049 137.431579,8.19512195 137.330526,8.3902439 C137.229474,8.53658537 137.178947,8.7804878 137.178947,8.97560976 C137.178947,9.26829268 137.229474,9.51219512 137.381053,9.70731707 C137.532632,9.90243902 137.684211,10.1463415 137.936842,10.2926829 C138.138947,10.4878049 138.442105,10.6341463 138.745263,10.7804878 C139.048421,10.9268293 139.351579,11.0731707 139.705263,11.2682927 C140.210526,11.4634146 140.665263,11.7073171 141.170526,11.902439 C141.675789,12.1463415 142.130526,12.3902439 142.534737,12.6829268 C142.938947,12.9756098 143.242105,13.3170732 143.545263,13.7560976 C143.797895,14.1463415 143.949474,14.6341463 143.949474,15.2195122 C143.949474,15.902439 143.797895,16.4390244 143.494737,16.9268293 C143.191579,17.4146341 142.787368,17.804878 142.332632,18.097561 C141.827368,18.3902439 141.271579,18.6341463 140.564211,18.7804878 C139.907368,18.9268293 139.2,19.0243902 138.442105,19.0243902 C138.088421,19.0243902 137.734737,19.0243902 137.330526,18.9756098 C136.976842,18.9268293 136.572632,18.8780488 136.218947,18.7804878 C135.865263,18.6829268 135.511579,18.5853659 135.157895,18.4878049 C134.804211,18.3902439 134.501053,18.2439024 134.197895,18.0487805 L134.197895,15.3170732 L134.147368,15.3170732 Z" id="Shape"></path>
                </g>
                <g id="Group" transform="translate(1.000000, 0.000000)">
                    <path d="M0.0502762431,7.90243902 C0.955248619,8.3902439 1.80994475,8.63414634 2.76519337,8.63414634 C4.52486188,8.63414634 5.58066298,7.65853659 5.58066298,6.09756098 C5.58066298,4.58536585 4.37403315,4.04878049 3.41878453,3.6097561 C2.76519337,3.31707317 2.2121547,3.07317073 2.2121547,2.53658537 C2.2121547,2.14634146 2.46353591,1.70731707 3.11712707,1.70731707 C3.56961326,1.70731707 4.07237569,1.85365854 4.77624309,2.14634146 L5.4801105,0.829268293 C4.67569061,0.390243902 3.87127072,0.146341463 2.96629834,0.146341463 C1.25690608,0.146341463 0.251381215,1.02439024 0.251381215,2.53658537 C0.251381215,4.04878049 1.45801105,4.58536585 2.41325967,5.07317073 C3.11712707,5.41463415 3.72044199,5.70731707 3.72044199,6.24390244 C3.72044199,6.73170732 3.2679558,7.02439024 2.66464088,7.02439024 C2.16187845,7.02439024 1.50828729,6.82926829 0.80441989,6.48780488 L0.0502762431,7.90243902 Z" id="Shape" fill="#1A2D59"></path>
                    <path d="M9.15027624,1.12195122 C8.3961326,1.12195122 7.29005525,1.12195122 6.63646409,1.12195122 L6.63646409,8.43902439 L8.54696133,8.43902439 L8.54696133,6.19512195 L9.1,6.19512195 C9.95469613,6.19512195 11.9657459,5.95121951 11.9657459,3.46341463 C11.9657459,1.95121951 10.960221,1.12195122 9.15027624,1.12195122 Z M9.1,4.87804878 C8.84861878,4.87804878 8.69779006,4.87804878 8.54696133,4.87804878 L8.54696133,2.53658537 C8.69779006,2.53658537 8.94917127,2.53658537 9.1,2.53658537 C9.95469613,2.53658537 10.1558011,3.02439024 10.1558011,3.80487805 C10.1558011,4.53658537 9.85414365,4.87804878 9.1,4.87804878 Z" id="Shape" fill="#1A2D59"></path>
                    <path d="M17.4458564,5.65853659 C18.0994475,5.12195122 18.4513812,4.3902439 18.4513812,3.51219512 C18.4513812,1.75609756 16.8928177,1.12195122 15.4348066,1.12195122 C14.680663,1.12195122 13.5745856,1.12195122 12.9209945,1.12195122 L12.9209945,8.43902439 L14.7812155,8.43902439 L14.7812155,6.19512195 L15.3342541,6.19512195 C15.4348066,6.19512195 15.5353591,6.19512195 15.6359116,6.19512195 C15.9375691,6.68292683 16.339779,7.46341463 16.4906077,8.43902439 C16.8928177,8.43902439 18.5519337,8.43902439 18.5519337,8.43902439 C18.4513812,7.36585366 17.7977901,6.24390244 17.4458564,5.65853659 Z M15.3342541,4.87804878 C15.0828729,4.87804878 14.9320442,4.87804878 14.7812155,4.87804878 L14.7812155,2.53658537 C14.9320442,2.53658537 15.1834254,2.53658537 15.3342541,2.53658537 C16.1889503,2.53658537 16.3900552,3.02439024 16.3900552,3.80487805 C16.4403315,4.53658537 16.0883978,4.87804878 15.3342541,4.87804878 Z" id="Shape" fill="#1A2D59"></path>
                    <polygon id="Shape" fill="#1A2D59" points="19.8088398 1.12195122 19.8088398 1.51219512 19.8088398 2.09756098 19.8088398 2.87804878 19.8088398 3.75609756 19.8088398 5.02439024 19.8088398 6.04878049 19.8088398 7.07317073 19.8088398 8.48780488 21.6690608 8.48780488 21.6690608 7.75609756 21.6690608 6.29268293 21.6690608 5.17073171 21.6690608 4.04878049 21.6690608 3.02439024 21.6690608 2.43902439 21.6690608 1.65853659 21.6690608 1.12195122"></polygon>
                    <polygon id="Shape" fill="#1A2D59" points="27.3502762 8.48780488 29.3110497 8.48780488 29.3110497 1.12195122 27.6519337 1.12195122 27.6519337 5.95121951 25.3895028 1.12195122 23.3281768 1.12195122 23.3281768 8.48780488 24.9872928 8.48780488 24.9872928 3.85365854"></polygon>
                    <polygon id="Shape" fill="#DB1830" points="56.259116 8.48780488 58.521547 8.48780488 58.521547 0.243902439 56.7618785 0.243902439 56.7618785 6 53.9966851 0.243902439 51.7845304 0.243902439 51.7845304 8.48780488 53.5441989 8.48780488 53.5441989 2.7804878"></polygon>
                    <path d="M33.8861878,0.975609756 C32.7298343,0.975609756 31.9254144,1.26829268 31.3723757,1.90243902 C30.819337,2.53658537 30.5679558,3.46341463 30.5679558,4.7804878 C30.5679558,7.6097561 31.4226519,8.68292683 33.7353591,8.68292683 C34.4895028,8.68292683 35.5453039,8.48780488 36.4,8.09756098 L36.4,4.43902439 L33.9364641,4.43902439 L33.9364641,5.70731707 L34.740884,5.70731707 L34.740884,7.2195122 C34.539779,7.26829268 34.0872928,7.31707317 33.8861878,7.31707317 C32.880663,7.31707317 32.478453,6.58536585 32.478453,4.7804878 C32.478453,3.17073171 33.0314917,2.3902439 34.2381215,2.3902439 C34.6403315,2.3902439 35.1933702,2.53658537 35.7966851,2.87804878 L36.2994475,1.65853659 C35.5955801,1.2195122 34.6906077,0.975609756 33.8861878,0.975609756" id="Shape" fill="#1A2D59"></path>
                    <polygon id="Shape" fill="#DB1830" points="67.9734807 8.48780488 69.9342541 8.48780488 69.9342541 2.63414634 71.3922652 2.63414634 71.3922652 1.12195122 66.2640884 1.12195122 66.2640884 2.63414634 67.9734807 2.63414634"></polygon>
                    <g transform="translate(37.204420, 0.975610)" id="Shape">
                        <path d="M35.2939227,0.146341463 L35.2939227,5.12195122 C35.2939227,6.87804878 36.1486188,7.65853659 38.1093923,7.65853659 C40.120442,7.65853659 41.0756906,6.7804878 41.0756906,4.87804878 L41.0756906,0.146341463 L39.1149171,0.146341463 L39.1149171,5.02439024 C39.1149171,5.75609756 39.0646409,6.24390244 38.2099448,6.24390244 C37.3552486,6.24390244 37.2546961,5.85365854 37.2546961,5.02439024 L37.2546961,0.146341463 L35.2939227,0.146341463 Z" fill="#DB1830"></path>
                        <path d="M0.452486188,0.146341463 L0.452486188,6.19512195 C0.452486188,6.19512195 0.452486188,6.7804878 0.854696133,7.17073171 C1.10607735,7.41463415 1.45801105,7.56097561 1.91049724,7.56097561 C3.2679558,7.56097561 4.77624309,7.51219512 4.97734807,7.51219512 L4.97734807,6.09756098 L2.26243094,6.09756098 L2.26243094,4.48780488 L4.72596685,4.48780488 L4.72596685,3.07317073 L2.26243094,3.07317073 L2.26243094,1.6097561 L4.92707182,1.6097561 L4.92707182,0.195121951 L0.452486188,0.195121951 L0.452486188,0.146341463 Z" fill="#1A2D59"></path>
                        <path d="M49.2707182,0.146341463 L49.2707182,6.19512195 C49.2707182,6.19512195 49.2707182,6.7804878 49.6729282,7.17073171 C49.9243094,7.41463415 50.2762431,7.56097561 50.7287293,7.56097561 C52.0861878,7.56097561 53.5944751,7.51219512 53.7955801,7.51219512 L53.7955801,6.09756098 L51.080663,6.09756098 L51.080663,4.48780488 L53.5441989,4.48780488 L53.5441989,3.07317073 L51.080663,3.07317073 L51.080663,1.6097561 L53.7453039,1.6097561 L53.7453039,0.195121951 L49.2707182,0.195121951 L49.2707182,0.146341463 Z" fill="#DB1830"></path>
                    </g>
                    <path d="M64.3535912,1.12195122 L61.4375691,1.12195122 L59.5773481,8.43902439 L61.4878453,8.43902439 L61.7392265,7.26829268 L63.8508287,7.26829268 L64.1022099,8.43902439 L66.1132597,8.43902439 L64.3535912,1.12195122 Z M61.9906077,5.90243902 L62.7950276,2.73170732 L62.8955801,2.73170732 L63.7,5.90243902 L61.9906077,5.90243902 Z" id="Shape" fill="#DB1830"></path>
                    <path d="M48.0640884,5.65853659 C48.7176796,5.12195122 49.0696133,4.3902439 49.0696133,3.51219512 C49.0696133,1.75609756 47.5110497,1.12195122 46.0530387,1.12195122 C45.298895,1.12195122 44.1928177,1.12195122 43.5392265,1.12195122 L43.5392265,8.43902439 L45.3994475,8.43902439 L45.3994475,6.19512195 L45.9524862,6.19512195 C46.0530387,6.19512195 46.1535912,6.19512195 46.2541436,6.19512195 C46.5558011,6.68292683 46.958011,7.46341463 47.1088398,8.43902439 C47.5110497,8.43902439 49.1701657,8.43902439 49.1701657,8.43902439 C49.0696133,7.36585366 48.4160221,6.24390244 48.0640884,5.65853659 Z M46.0027624,4.87804878 C45.7513812,4.87804878 45.6005525,4.87804878 45.4497238,4.87804878 L45.4497238,2.53658537 C45.6005525,2.53658537 45.8519337,2.53658537 46.0027624,2.53658537 C46.8574586,2.53658537 47.0585635,3.02439024 47.0585635,3.80487805 C47.0585635,4.53658537 46.7066298,4.87804878 46.0027624,4.87804878 Z" id="Shape" fill="#1A2D59"></path>
                    <path d="M84.2127072,5.65853659 C84.8662983,5.12195122 85.218232,4.3902439 85.218232,3.51219512 C85.218232,1.75609756 83.6596685,1.12195122 82.2016575,1.12195122 C81.4475138,1.12195122 80.3414365,1.12195122 79.6878453,1.12195122 L79.6878453,8.43902439 L81.5480663,8.43902439 L81.5480663,6.19512195 L82.101105,6.19512195 C82.2016575,6.19512195 82.3022099,6.19512195 82.4027624,6.19512195 C82.7044199,6.68292683 83.1066298,7.46341463 83.2574586,8.43902439 C83.6596685,8.43902439 85.3187845,8.43902439 85.3187845,8.43902439 C85.218232,7.36585366 84.5646409,6.24390244 84.2127072,5.65853659 Z M82.1513812,4.87804878 C81.9,4.87804878 81.7491713,4.87804878 81.5983425,4.87804878 L81.5983425,2.53658537 C81.7491713,2.53658537 82.0005525,2.53658537 82.1513812,2.53658537 C83.0060773,2.53658537 83.2071823,3.02439024 83.2071823,3.80487805 C83.2071823,4.53658537 82.8552486,4.87804878 82.1513812,4.87804878 Z" id="Shape" fill="#DB1830"></path>
                </g>
            </g>
        </g>
    </g>
</svg>